#include <stdint.h>
const uint8_t background_music[] = {
0x4d,0x54,0x68,0x64,0x00,0x00,0x00,0x06,0x00,0x01,0x00,0x02,0x04,0x00,0x4d,0x54,
0x72,0x6b,0x00,0x00,0x02,0x86,0x00,0xff,0x54,0x05,0x00,0x00,0x00,0x00,0x00,0x00,
0xff,0x58,0x04,0x04,0x02,0x18,0x08,0x00,0xff,0x59,0x02,0xfb,0x00,0x00,0xff,0x51,
0x03,0x07,0xa1,0x1f,0x00,0xff,0x51,0x03,0x07,0xa1,0x1f,0x00,0xff,0x51,0x03,0x07,
0xa1,0x23,0x81,0xd0,0x00,0xff,0x51,0x03,0x07,0xa1,0x23,0x82,0x00,0xff,0x51,0x03,
0x07,0xb2,0x72,0x82,0x00,0xff,0x51,0x03,0x07,0xba,0x40,0x82,0x00,0xff,0x51,0x03,
0x07,0xc3,0x19,0x82,0x00,0xff,0x51,0x03,0x07,0xd4,0x05,0x82,0x00,0xff,0x51,0x03,
0x07,0xdc,0x15,0x82,0x00,0xff,0x51,0x03,0x07,0xe5,0x3c,0x82,0x00,0xff,0x51,0x03,
0x07,0xed,0x6f,0x84,0x00,0xff,0x51,0x03,0x07,0xa1,0x23,0xee,0x00,0xff,0x51,0x03,
0x07,0xa1,0x23,0x82,0x00,0xff,0x51,0x03,0x07,0xa9,0xc2,0x82,0x00,0xff,0x51,0x03,
0x07,0xb2,0x72,0x82,0x00,0xff,0x51,0x03,0x07,0xb2,0x72,0x82,0x00,0xff,0x51,0x03,
0x07,0xba,0x40,0x82,0x00,0xff,0x51,0x03,0x07,0xba,0x40,0x82,0x00,0xff,0x51,0x03,
0x07,0xc3,0x19,0x82,0x00,0xff,0x51,0x03,0x07,0xcb,0x06,0x82,0x00,0xff,0x51,0x03,
0x07,0xa1,0x23,0x90,0x00,0xff,0x51,0x03,0x07,0xa1,0x23,0x82,0x00,0xff,0x51,0x03,
0x07,0xb2,0x72,0x82,0x00,0xff,0x51,0x03,0x07,0xba,0x40,0x82,0x00,0xff,0x51,0x03,
0x07,0xc3,0x19,0x82,0x00,0xff,0x51,0x03,0x07,0xd4,0x05,0x82,0x00,0xff,0x51,0x03,
0x07,0xdc,0x15,0x82,0x00,0xff,0x51,0x03,0x07,0xe5,0x3c,0x82,0x00,0xff,0x51,0x03,
0x07,0xed,0x6f,0x84,0x00,0xff,0x51,0x03,0x07,0xa1,0x23,0x81,0xae,0x00,0xff,0x51,
0x03,0x07,0xa1,0x23,0x82,0x00,0xff,0x51,0x03,0x07,0xb2,0x72,0x82,0x00,0xff,0x51,
0x03,0x07,0xba,0x40,0x82,0x00,0xff,0x51,0x03,0x07,0xc3,0x19,0x82,0x00,0xff,0x51,
0x03,0x07,0xd4,0x05,0x82,0x00,0xff,0x51,0x03,0x07,0xdc,0x15,0x82,0x00,0xff,0x51,
0x03,0x07,0xe5,0x3c,0x82,0x00,0xff,0x51,0x03,0x07,0xed,0x6f,0x84,0x00,0xff,0x51,
0x03,0x07,0xa1,0x23,0x82,0xbe,0x00,0xff,0x51,0x03,0x07,0xa1,0x1f,0x00,0xff,0x51,
0x03,0x07,0xa1,0x23,0x81,0xd0,0x00,0xff,0x51,0x03,0x07,0xa1,0x23,0x82,0x00,0xff,
0x51,0x03,0x07,0xb2,0x72,0x82,0x00,0xff,0x51,0x03,0x07,0xba,0x40,0x82,0x00,0xff,
0x51,0x03,0x07,0xc3,0x19,0x82,0x00,0xff,0x51,0x03,0x07,0xd4,0x05,0x82,0x00,0xff,
0x51,0x03,0x07,0xdc,0x15,0x82,0x00,0xff,0x51,0x03,0x07,0xe5,0x3c,0x82,0x00,0xff,
0x51,0x03,0x07,0xed,0x6f,0x84,0x00,0xff,0x51,0x03,0x07,0xa1,0x23,0xee,0x00,0xff,
0x51,0x03,0x07,0xa1,0x23,0x82,0x00,0xff,0x51,0x03,0x07,0xa9,0xc2,0x82,0x00,0xff,
0x51,0x03,0x07,0xb2,0x72,0x82,0x00,0xff,0x51,0x03,0x07,0xb2,0x72,0x82,0x00,0xff,
0x51,0x03,0x07,0xba,0x40,0x82,0x00,0xff,0x51,0x03,0x07,0xba,0x40,0x82,0x00,0xff,
0x51,0x03,0x07,0xc3,0x19,0x82,0x00,0xff,0x51,0x03,0x07,0xcb,0x06,0x82,0x00,0xff,
0x51,0x03,0x07,0xa1,0x23,0x90,0x00,0xff,0x51,0x03,0x07,0xa1,0x23,0x82,0x00,0xff,
0x51,0x03,0x07,0xb2,0x72,0x82,0x00,0xff,0x51,0x03,0x07,0xba,0x40,0x82,0x00,0xff,
0x51,0x03,0x07,0xc3,0x19,0x82,0x00,0xff,0x51,0x03,0x07,0xd4,0x05,0x82,0x00,0xff,
0x51,0x03,0x07,0xdc,0x15,0x82,0x00,0xff,0x51,0x03,0x07,0xe5,0x3c,0x82,0x00,0xff,
0x51,0x03,0x07,0xed,0x6f,0x84,0x00,0xff,0x51,0x03,0x07,0xa1,0x23,0x81,0xae,0x00,
0xff,0x51,0x03,0x07,0xa1,0x23,0x82,0x00,0xff,0x51,0x03,0x07,0xb2,0x72,0x82,0x00,
0xff,0x51,0x03,0x07,0xba,0x40,0x82,0x00,0xff,0x51,0x03,0x07,0xc3,0x19,0x82,0x00,
0xff,0x51,0x03,0x07,0xd4,0x05,0x82,0x00,0xff,0x51,0x03,0x07,0xdc,0x15,0x82,0x00,
0xff,0x51,0x03,0x07,0xe5,0x3c,0x82,0x00,0xff,0x51,0x03,0x07,0xed,0x6f,0x84,0x00,
0xff,0x51,0x03,0x07,0xa1,0x23,0x82,0xbd,0x62,0xff,0x2f,0x00,0x4d,0x54,0x72,0x6b,
0x00,0x00,0x2b,0xa0,0x00,0xff,0x09,0x16,0x53,0x6d,0x61,0x72,0x74,0x4d,0x75,0x73,
0x69,0x63,0x20,0x53,0x6f,0x66,0x74,0x53,0x79,0x6e,0x74,0x68,0x20,0x31,0x00,0xff,
0x03,0x05,0x50,0x69,0x61,0x6e,0x6f,0x00,0xc0,0x01,0x00,0xb0,0x07,0x65,0x00,0xb0,
0x0a,0x40,0x00,0xb0,0x07,0x66,0x00,0xb0,0x07,0x6e,0x0a,0xb0,0x07,0x66,0x00,0xb0,
0x07,0x6e,0x00,0x90,0x44,0x45,0x00,0x90,0x31,0x45,0x83,0x79,0x80,0x44,0x00,0x00,
0x80,0x31,0x00,0x1f,0x90,0x49,0x40,0x00,0x90,0x38,0x38,0x00,0x90,0x3d,0x38,0x00,
0x90,0x41,0x46,0x83,0x5d,0x80,0x49,0x00,0x00,0x80,0x38,0x00,0x00,0x80,0x3d,0x00,
0x1e,0x80,0x41,0x00,0x01,0x90,0x4b,0x41,0x00,0x90,0x2c,0x41,0x83,0x5a,0x80,0x4b,
0x00,0x00,0x80,0x2c,0x00,0x1f,0x90,0x49,0x40,0x00,0x90,0x38,0x38,0x00,0x90,0x3d,
0x38,0x00,0x90,0x41,0x46,0x81,0x68,0x80,0x49,0x00,0x10,0x90,0x44,0x40,0x81,0x67,
0x80,0x38,0x00,0x00,0x80,0x3d,0x00,0x1e,0x80,0x41,0x00,0x01,0x90,0x31,0x43,0x82,
0x06,0x80,0x44,0x00,0x01,0x90,0x44,0x40,0x81,0x58,0x80,0x31,0x00,0x0f,0x80,0x44,
0x00,0x10,0x90,0x49,0x40,0x00,0x90,0x3a,0x38,0x00,0x90,0x3d,0x38,0x00,0x90,0x42,
0x46,0x83,0x5a,0x80,0x49,0x00,0x00,0x80,0x3a,0x00,0x00,0x80,0x3d,0x00,0x1e,0x80,
0x42,0x00,0x01,0x90,0x4b,0x41,0x00,0x90,0x2c,0x41,0x83,0x5a,0x80,0x4b,0x00,0x00,
0x80,0x2c,0x00,0x1f,0x90,0x49,0x40,0x00,0x90,0x3a,0x38,0x00,0x90,0x3d,0x38,0x00,
0x90,0x42,0x46,0x83,0x5c,0x80,0x49,0x00,0x00,0x80,0x3a,0x00,0x00,0x80,0x3d,0x00,
0x1e,0x80,0x42,0x00,0x05,0x90,0x44,0x45,0x00,0x90,0x31,0x45,0x83,0x7f,0x80,0x44,
0x00,0x00,0x80,0x31,0x00,0x1f,0x90,0x49,0x40,0x00,0x90,0x3c,0x38,0x00,0x90,0x3f,
0x38,0x00,0x90,0x44,0x46,0x83,0x5d,0x80,0x49,0x00,0x00,0x80,0x3c,0x00,0x00,0x80,
0x3f,0x00,0x1e,0x80,0x44,0x00,0x01,0x90,0x4b,0x41,0x00,0x90,0x2c,0x41,0x83,0x5a,
0x80,0x4b,0x00,0x00,0x80,0x2c,0x00,0x1f,0x90,0x49,0x40,0x00,0x90,0x3c,0x38,0x00,
0x90,0x3f,0x38,0x00,0x90,0x44,0x46,0x81,0x68,0x80,0x49,0x00,0x10,0x90,0x4e,0x40,
0x81,0x67,0x80,0x3c,0x00,0x00,0x80,0x3f,0x00,0x1e,0x80,0x44,0x00,0x01,0x90,0x31,
0x43,0x82,0x06,0x80,0x4e,0x00,0x01,0x90,0x4e,0x40,0x81,0x58,0x80,0x31,0x00,0x0f,
0x80,0x4e,0x00,0x10,0x90,0x4d,0x40,0x00,0x90,0x3a,0x38,0x00,0x90,0x3d,0x38,0x00,
0x90,0x42,0x46,0x83,0x5a,0x80,0x4d,0x00,0x00,0x80,0x3a,0x00,0x00,0x80,0x3d,0x00,
0x1e,0x80,0x42,0x00,0x01,0x90,0x4b,0x41,0x00,0x90,0x2c,0x41,0x83,0x5a,0x80,0x4b,
0x00,0x00,0x80,0x2c,0x00,0x1f,0x90,0x49,0x40,0x00,0x90,0x3a,0x38,0x00,0x90,0x3d,
0x38,0x00,0x90,0x42,0x46,0x83,0x5c,0x80,0x49,0x00,0x00,0x80,0x3a,0x00,0x00,0x80,
0x3d,0x00,0x1e,0x80,0x42,0x00,0x05,0x90,0x44,0x45,0x00,0x90,0x31,0x45,0x83,0x7f,
0x80,0x44,0x00,0x00,0x80,0x31,0x00,0x1f,0x90,0x49,0x40,0x00,0x90,0x38,0x38,0x00,
0x90,0x3d,0x38,0x00,0x90,0x41,0x46,0x83,0x5d,0x80,0x49,0x00,0x00,0x80,0x38,0x00,
0x00,0x80,0x3d,0x00,0x1e,0x80,0x41,0x00,0x01,0x90,0x4b,0x41,0x00,0x90,0x2c,0x41,
0x83,0x5a,0x80,0x4b,0x00,0x00,0x80,0x2c,0x00,0x1f,0x90,0x49,0x40,0x00,0x90,0x38,
0x38,0x00,0x90,0x3d,0x38,0x00,0x90,0x41,0x46,0x81,0x68,0x80,0x49,0x00,0x10,0x90,
0x44,0x40,0x81,0x67,0x80,0x38,0x00,0x00,0x80,0x3d,0x00,0x1e,0x80,0x41,0x00,0x01,
0x90,0x31,0x43,0x82,0x06,0x80,0x44,0x00,0x01,0x90,0x44,0x40,0x81,0x58,0x80,0x31,
0x00,0x0f,0x80,0x44,0x00,0x10,0x90,0x49,0x40,0x00,0x90,0x3a,0x38,0x00,0x90,0x3d,
0x38,0x00,0x90,0x42,0x46,0x83,0x5a,0x80,0x49,0x00,0x00,0x80,0x3a,0x00,0x00,0x80,
0x3d,0x00,0x1e,0x80,0x42,0x00,0x01,0x90,0x4b,0x41,0x00,0x90,0x2c,0x41,0x83,0x5a,
0x80,0x4b,0x00,0x00,0x80,0x2c,0x00,0x1f,0x90,0x49,0x40,0x00,0x90,0x3a,0x38,0x00,
0x90,0x3d,0x38,0x00,0x90,0x42,0x46,0x83,0x5c,0x80,0x49,0x00,0x00,0x80,0x3a,0x00,
0x00,0x80,0x3d,0x00,0x1e,0x80,0x42,0x00,0x05,0x90,0x44,0x45,0x00,0x90,0x31,0x45,
0x83,0x7f,0x80,0x44,0x00,0x00,0x80,0x31,0x00,0x1f,0x90,0x42,0x40,0x00,0x90,0x3c,
0x38,0x00,0x90,0x3f,0x38,0x00,0x90,0x44,0x46,0x81,0x69,0x80,0x42,0x00,0x10,0x90,
0x41,0x40,0x81,0x64,0x80,0x3c,0x00,0x00,0x80,0x3f,0x00,0x0f,0x80,0x41,0x00,0x0f,
0x80,0x44,0x00,0x01,0x90,0x42,0x41,0x00,0x90,0x2c,0x41,0x83,0x5a,0x80,0x42,0x00,
0x00,0x80,0x2c,0x00,0x1f,0x90,0x49,0x40,0x00,0x90,0x3c,0x38,0x00,0x90,0x3f,0x38,
0x00,0x90,0x44,0x46,0x83,0x5f,0x80,0x3c,0x00,0x00,0x80,0x3f,0x00,0x1e,0x80,0x44,
0x00,0x01,0x90,0x31,0x43,0x83,0x5f,0x80,0x31,0x00,0x1f,0x90,0x3a,0x38,0x00,0x90,
0x3d,0x38,0x00,0x90,0x42,0x46,0x83,0x5a,0x80,0x3a,0x00,0x00,0x80,0x3d,0x00,0x1e,
0x80,0x42,0x00,0x01,0x90,0x2c,0x41,0x83,0x5a,0x80,0x2c,0x00,0x1f,0x90,0x3a,0x38,
0x00,0x90,0x3d,0x38,0x00,0x90,0x42,0x46,0x83,0x5c,0x80,0x3a,0x00,0x00,0x80,0x3d,
0x00,0x1e,0x80,0x49,0x00,0x00,0x80,0x42,0x00,0x05,0x90,0x44,0x45,0x00,0x90,0x31,
0x45,0x83,0x7f,0x80,0x44,0x00,0x00,0x80,0x31,0x00,0x1f,0x90,0x49,0x40,0x00,0x90,
0x38,0x38,0x00,0x90,0x3d,0x38,0x00,0x90,0x41,0x46,0x83,0x5d,0x80,0x49,0x00,0x00,
0x80,0x38,0x00,0x00,0x80,0x3d,0x00,0x1e,0x80,0x41,0x00,0x01,0x90,0x4b,0x41,0x00,
0x90,0x2c,0x41,0x83,0x5a,0x80,0x4b,0x00,0x00,0x80,0x2c,0x00,0x1f,0x90,0x49,0x40,
0x00,0x90,0x38,0x38,0x00,0x90,0x3d,0x38,0x00,0x90,0x41,0x46,0x81,0x68,0x80,0x49,
0x00,0x10,0x90,0x44,0x40,0x81,0x67,0x80,0x38,0x00,0x00,0x80,0x3d,0x00,0x1e,0x80,
0x41,0x00,0x01,0x90,0x31,0x43,0x82,0x06,0x80,0x44,0x00,0x01,0x90,0x44,0x40,0x81,
0x58,0x80,0x31,0x00,0x0f,0x80,0x44,0x00,0x10,0x90,0x49,0x40,0x00,0x90,0x3a,0x38,
0x00,0x90,0x3d,0x38,0x00,0x90,0x42,0x46,0x83,0x5a,0x80,0x49,0x00,0x00,0x80,0x3a,
0x00,0x00,0x80,0x3d,0x00,0x1e,0x80,0x42,0x00,0x01,0x90,0x4b,0x41,0x00,0x90,0x2c,
0x41,0x83,0x5a,0x80,0x4b,0x00,0x00,0x80,0x2c,0x00,0x1f,0x90,0x49,0x40,0x00,0x90,
0x3a,0x38,0x00,0x90,0x3d,0x38,0x00,0x90,0x42,0x46,0x83,0x5c,0x80,0x49,0x00,0x00,
0x80,0x3a,0x00,0x00,0x80,0x3d,0x00,0x1e,0x80,0x42,0x00,0x05,0x90,0x44,0x45,0x00,
0x90,0x31,0x45,0x83,0x7f,0x80,0x44,0x00,0x00,0x80,0x31,0x00,0x1f,0x90,0x49,0x40,
0x00,0x90,0x3c,0x38,0x00,0x90,0x3f,0x38,0x00,0x90,0x44,0x46,0x83,0x5d,0x80,0x49,
0x00,0x00,0x80,0x3c,0x00,0x00,0x80,0x3f,0x00,0x1e,0x80,0x44,0x00,0x01,0x90,0x4b,
0x41,0x00,0x90,0x2c,0x41,0x83,0x5a,0x80,0x4b,0x00,0x00,0x80,0x2c,0x00,0x1f,0x90,
0x49,0x40,0x00,0x90,0x3c,0x38,0x00,0x90,0x3f,0x38,0x00,0x90,0x44,0x46,0x81,0x68,
0x80,0x49,0x00,0x10,0x90,0x4e,0x40,0x81,0x67,0x80,0x3c,0x00,0x00,0x80,0x3f,0x00,
0x1e,0x80,0x44,0x00,0x01,0x90,0x31,0x43,0x82,0x06,0x80,0x4e,0x00,0x01,0x90,0x4e,
0x40,0x81,0x58,0x80,0x31,0x00,0x0f,0x80,0x4e,0x00,0x10,0x90,0x4d,0x40,0x00,0x90,
0x3a,0x38,0x00,0x90,0x3d,0x38,0x00,0x90,0x42,0x46,0x83,0x5a,0x80,0x4d,0x00,0x00,
0x80,0x3a,0x00,0x00,0x80,0x3d,0x00,0x1e,0x80,0x42,0x00,0x01,0x90,0x4b,0x41,0x00,
0x90,0x2c,0x41,0x83,0x5a,0x80,0x4b,0x00,0x00,0x80,0x2c,0x00,0x1f,0x90,0x49,0x40,
0x00,0x90,0x3a,0x38,0x00,0x90,0x3d,0x38,0x00,0x90,0x42,0x46,0x83,0x5c,0x80,0x49,
0x00,0x00,0x80,0x3a,0x00,0x00,0x80,0x3d,0x00,0x1e,0x80,0x42,0x00,0x05,0x90,0x44,
0x45,0x00,0x90,0x31,0x45,0x83,0x7f,0x80,0x44,0x00,0x00,0x80,0x31,0x00,0x1f,0x90,
0x49,0x40,0x00,0x90,0x38,0x38,0x00,0x90,0x3d,0x38,0x00,0x90,0x41,0x46,0x83,0x5d,
0x80,0x49,0x00,0x00,0x80,0x38,0x00,0x00,0x80,0x3d,0x00,0x1e,0x80,0x41,0x00,0x01,
0x90,0x4b,0x41,0x00,0x90,0x2c,0x41,0x83,0x5a,0x80,0x4b,0x00,0x00,0x80,0x2c,0x00,
0x1f,0x90,0x49,0x40,0x00,0x90,0x38,0x38,0x00,0x90,0x3d,0x38,0x00,0x90,0x41,0x46,
0x81,0x68,0x80,0x49,0x00,0x10,0x90,0x44,0x40,0x81,0x67,0x80,0x38,0x00,0x00,0x80,
0x3d,0x00,0x1e,0x80,0x41,0x00,0x01,0x90,0x31,0x43,0x82,0x06,0x80,0x44,0x00,0x01,
0x90,0x44,0x40,0x81,0x58,0x80,0x31,0x00,0x0f,0x80,0x44,0x00,0x10,0x90,0x49,0x40,
0x00,0x90,0x3a,0x38,0x00,0x90,0x3d,0x38,0x00,0x90,0x42,0x46,0x83,0x5a,0x80,0x49,
0x00,0x00,0x80,0x3a,0x00,0x00,0x80,0x3d,0x00,0x1e,0x80,0x42,0x00,0x01,0x90,0x4b,
0x41,0x00,0x90,0x2c,0x41,0x83,0x5a,0x80,0x4b,0x00,0x00,0x80,0x2c,0x00,0x1f,0x90,
0x49,0x40,0x00,0x90,0x3a,0x38,0x00,0x90,0x3d,0x38,0x00,0x90,0x42,0x46,0x83,0x5c,
0x80,0x49,0x00,0x00,0x80,0x3a,0x00,0x00,0x80,0x3d,0x00,0x1e,0x80,0x42,0x00,0x05,
0x90,0x44,0x45,0x00,0x90,0x2f,0x45,0x83,0x7f,0x80,0x44,0x00,0x00,0x80,0x2f,0x00,
0x1f,0x90,0x42,0x40,0x00,0x90,0x3b,0x38,0x00,0x90,0x3f,0x38,0x00,0x90,0x44,0x46,
0x81,0x69,0x80,0x42,0x00,0x10,0x90,0x41,0x40,0x81,0x64,0x80,0x3b,0x00,0x00,0x80,
0x3f,0x00,0x0f,0x80,0x41,0x00,0x0f,0x80,0x44,0x00,0x01,0x90,0x42,0x41,0x00,0x90,
0x2a,0x41,0x83,0x5a,0x80,0x42,0x00,0x00,0x80,0x2a,0x00,0x1f,0x90,0x49,0x40,0x00,
0x90,0x3b,0x38,0x00,0x90,0x3f,0x38,0x00,0x90,0x44,0x46,0x83,0x5f,0x80,0x3b,0x00,
0x00,0x80,0x3f,0x00,0x1e,0x80,0x44,0x00,0x01,0x90,0x2f,0x43,0x83,0x5f,0x80,0x2f,
0x00,0x1f,0x90,0x3b,0x38,0x00,0x90,0x3d,0x38,0x00,0x90,0x42,0x46,0x83,0x5a,0x80,
0x3b,0x00,0x00,0x80,0x3d,0x00,0x1e,0x80,0x42,0x00,0x01,0x90,0x2a,0x41,0x83,0x5a,
0x80,0x2a,0x00,0x1f,0x90,0x3b,0x38,0x00,0x90,0x3d,0x38,0x00,0x90,0x42,0x46,0x83,
0x5c,0x80,0x3b,0x00,0x00,0x80,0x3d,0x00,0x1e,0x80,0x49,0x00,0x00,0x80,0x42,0x00,
0x05,0x90,0x4d,0x45,0x00,0x90,0x31,0x45,0x83,0x7f,0x80,0x31,0x00,0x1f,0x90,0x38,
0x38,0x00,0x90,0x3d,0x38,0x00,0x90,0x41,0x46,0x83,0x5d,0x80,0x38,0x00,0x00,0x80,
0x3d,0x00,0x1e,0x80,0x4d,0x00,0x00,0x80,0x41,0x00,0x01,0x90,0x49,0x41,0x00,0x90,
0x2c,0x41,0x83,0x5a,0x80,0x2c,0x00,0x1f,0x90,0x38,0x38,0x00,0x90,0x3d,0x38,0x00,
0x90,0x41,0x46,0x81,0x77,0x80,0x49,0x00,0x01,0x90,0x49,0x40,0x81,0x67,0x80,0x38,
0x00,0x00,0x80,0x3d,0x00,0x0f,0x80,0x49,0x00,0x0f,0x80,0x41,0x00,0x01,0x90,0x4e,
0x43,0x00,0x90,0x31,0x43,0x81,0x77,0x80,0x4e,0x00,0x10,0x90,0x4d,0x40,0x81,0x58,
0x80,0x31,0x00,0x1f,0x90,0x3a,0x38,0x00,0x90,0x3d,0x38,0x00,0x90,0x42,0x46,0x81,
0x59,0x80,0x4d,0x00,0x1f,0x90,0x49,0x34,0x81,0x62,0x80,0x3a,0x00,0x00,0x80,0x3d,
0x00,0x1e,0x80,0x42,0x00,0x01,0x90,0x2c,0x41,0x82,0x00,0x80,0x49,0x00,0x01,0x90,
0x49,0x34,0x81,0x59,0x80,0x2c,0x00,0x1f,0x90,0x4b,0x40,0x00,0x90,0x3a,0x38,0x00,
0x90,0x3d,0x38,0x00,0x90,0x42,0x46,0x0e,0x80,0x49,0x00,0x83,0x4e,0x80,0x4b,0x00,
0x00,0x80,0x3a,0x00,0x00,0x80,0x3d,0x00,0x1e,0x80,0x42,0x00,0x05,0x90,0x44,0x45,
0x00,0x90,0x31,0x45,0x83,0x7f,0x80,0x44,0x00,0x00,0x80,0x31,0x00,0x1f,0x90,0x46,
0x40,0x00,0x90,0x3c,0x38,0x00,0x90,0x3f,0x38,0x00,0x90,0x44,0x46,0x83,0x5d,0x80,
0x46,0x00,0x00,0x80,0x3c,0x00,0x00,0x80,0x3f,0x00,0x1e,0x80,0x44,0x00,0x01,0x90,
0x44,0x41,0x00,0x90,0x2c,0x41,0x81,0x72,0x80,0x44,0x00,0x10,0x90,0x46,0x40,0x81,
0x58,0x80,0x2c,0x00,0x1f,0x90,0x3c,0x38,0x00,0x90,0x3f,0x38,0x00,0x90,0x44,0x46,
0x81,0x59,0x80,0x46,0x00,0x1f,0x90,0x44,0x40,0x81,0x67,0x80,0x3c,0x00,0x00,0x80,
0x3f,0x00,0x1e,0x80,0x44,0x00,0x01,0x90,0x31,0x43,0x83,0x5f,0x80,0x31,0x00,0x1f,
0x90,0x3a,0x38,0x00,0x90,0x3d,0x38,0x00,0x90,0x42,0x46,0x83,0x5a,0x80,0x3a,0x00,
0x00,0x80,0x3d,0x00,0x1e,0x80,0x42,0x00,0x01,0x90,0x2c,0x41,0x83,0x5a,0x80,0x2c,
0x00,0x1f,0x90,0x38,0x38,0x00,0x90,0x3d,0x38,0x00,0x90,0x41,0x46,0x83,0x5c,0x80,
0x38,0x00,0x00,0x80,0x3d,0x00,0x1e,0x80,0x44,0x00,0x00,0x80,0x41,0x00,0x05,0x90,
0x46,0x45,0x00,0x90,0x2a,0x45,0x83,0x7f,0x80,0x46,0x00,0x00,0x80,0x2a,0x00,0x1f,
0x90,0x49,0x40,0x00,0x90,0x3a,0x38,0x00,0x90,0x3d,0x38,0x00,0x90,0x41,0x46,0x83,
0x5d,0x80,0x49,0x00,0x00,0x80,0x3a,0x00,0x00,0x80,0x3d,0x00,0x1e,0x80,0x41,0x00,
0x01,0x90,0x4e,0x41,0x00,0x90,0x31,0x41,0x81,0x72,0x80,0x4e,0x00,0x10,0x90,0x4d,
0x40,0x81,0x58,0x80,0x31,0x00,0x1f,0x90,0x3a,0x38,0x00,0x90,0x3d,0x38,0x00,0x90,
0x41,0x46,0x81,0x59,0x80,0x4d,0x00,0x1f,0x90,0x49,0x40,0x81,0x67,0x80,0x3a,0x00,
0x00,0x80,0x3d,0x00,0x1e,0x80,0x41,0x00,0x01,0x90,0x2a,0x43,0x83,0x5f,0x80,0x2a,
0x00,0x1f,0x90,0x3a,0x38,0x00,0x90,0x3d,0x38,0x00,0x90,0x42,0x46,0x83,0x5a,0x80,
0x3a,0x00,0x00,0x80,0x3d,0x00,0x1e,0x80,0x42,0x00,0x01,0x90,0x31,0x41,0x83,0x5a,
0x80,0x31,0x00,0x1e,0x80,0x49,0x00,0x01,0x90,0x44,0x40,0x00,0x90,0x3a,0x38,0x00,
0x90,0x3d,0x38,0x00,0x90,0x42,0x46,0x83,0x5c,0x80,0x44,0x00,0x00,0x80,0x3a,0x00,
0x1e,0x80,0x3d,0x00,0x00,0x80,0x42,0x00,0x05,0x90,0x46,0x45,0x00,0x90,0x2f,0x45,
0x83,0x7f,0x80,0x46,0x00,0x00,0x80,0x2f,0x00,0x1f,0x90,0x49,0x40,0x00,0x90,0x3d,
0x38,0x00,0x90,0x42,0x38,0x00,0x90,0x46,0x46,0x83,0x5d,0x80,0x49,0x00,0x00,0x80,
0x3d,0x00,0x00,0x80,0x42,0x00,0x1e,0x80,0x46,0x00,0x01,0x90,0x4e,0x41,0x00,0x90,
0x36,0x41,0x81,0x72,0x80,0x4e,0x00,0x10,0x90,0x4d,0x40,0x81,0x58,0x80,0x36,0x00,
0x1f,0x90,0x3d,0x38,0x00,0x90,0x42,0x38,0x00,0x90,0x46,0x46,0x81,0x59,0x80,0x4d,
0x00,0x1f,0x90,0x49,0x40,0x81,0x67,0x80,0x3d,0x00,0x00,0x80,0x42,0x00,0x1e,0x80,
0x46,0x00,0x01,0x90,0x2c,0x43,0x83,0x5f,0x80,0x2c,0x00,0x1f,0x90,0x3c,0x38,0x00,
0x90,0x3f,0x38,0x00,0x90,0x44,0x46,0x83,0x5a,0x80,0x3c,0x00,0x00,0x80,0x3f,0x00,
0x1e,0x80,0x49,0x00,0x00,0x80,0x44,0x00,0x01,0x90,0x4b,0x41,0x00,0x90,0x38,0x41,
0x83,0x5a,0x80,0x38,0x00,0x1f,0x90,0x3c,0x38,0x00,0x90,0x3f,0x38,0x00,0x90,0x44,
0x46,0x83,0x5c,0x80,0x3c,0x00,0x00,0x80,0x3f,0x00,0x1e,0x80,0x4b,0x00,0x00,0x80,
0x44,0x00,0x05,0x90,0x41,0x45,0x00,0x90,0x31,0x45,0x83,0x7f,0x80,0x41,0x00,0x00,
0x80,0x31,0x00,0x1f,0x90,0x44,0x40,0x00,0x90,0x38,0x38,0x00,0x90,0x3d,0x38,0x00,
0x90,0x41,0x46,0x83,0x5d,0x80,0x44,0x00,0x00,0x80,0x38,0x00,0x00,0x80,0x3d,0x00,
0x1e,0x80,0x41,0x00,0x01,0x90,0x46,0x41,0x00,0x90,0x2c,0x41,0x83,0x5a,0x80,0x46,
0x00,0x00,0x80,0x2c,0x00,0x1f,0x90,0x44,0x40,0x00,0x90,0x38,0x38,0x00,0x90,0x3d,
0x38,0x00,0x90,0x41,0x46,0x81,0x68,0x80,0x44,0x00,0x10,0x90,0x41,0x40,0x81,0x67,
0x80,0x38,0x00,0x00,0x80,0x3d,0x00,0x1e,0x80,0x41,0x00,0x01,0x90,0x31,0x43,0x82,
0x06,0x80,0x41,0x00,0x01,0x90,0x41,0x40,0x81,0x58,0x80,0x31,0x00,0x0f,0x80,0x41,
0x00,0x10,0x90,0x44,0x40,0x00,0x90,0x3a,0x38,0x00,0x90,0x3d,0x38,0x00,0x90,0x42,
0x46,0x83,0x5a,0x80,0x44,0x00,0x00,0x80,0x3a,0x00,0x00,0x80,0x3d,0x00,0x1e,0x80,
0x42,0x00,0x01,0x90,0x46,0x41,0x00,0x90,0x2c,0x41,0x83,0x5a,0x80,0x46,0x00,0x00,
0x80,0x2c,0x00,0x1f,0x90,0x44,0x40,0x00,0x90,0x3a,0x38,0x00,0x90,0x3d,0x38,0x00,
0x90,0x42,0x46,0x83,0x5c,0x80,0x44,0x00,0x00,0x80,0x3a,0x00,0x00,0x80,0x3d,0x00,
0x1e,0x80,0x42,0x00,0x05,0x90,0x41,0x45,0x00,0x90,0x31,0x45,0x83,0x7f,0x80,0x41,
0x00,0x00,0x80,0x31,0x00,0x1f,0x90,0x44,0x40,0x00,0x90,0x3c,0x38,0x00,0x90,0x3f,
0x38,0x00,0x90,0x44,0x46,0x83,0x5d,0x80,0x44,0x00,0x00,0x80,0x3c,0x00,0x00,0x80,
0x3f,0x00,0x1e,0x80,0x44,0x00,0x01,0x90,0x46,0x41,0x00,0x90,0x2c,0x41,0x83,0x5a,
0x80,0x46,0x00,0x00,0x80,0x2c,0x00,0x1f,0x90,0x44,0x40,0x00,0x90,0x3c,0x38,0x00,
0x90,0x3f,0x38,0x00,0x90,0x44,0x46,0x81,0x68,0x80,0x44,0x00,0x10,0x90,0x49,0x40,
0x81,0x67,0x80,0x3c,0x00,0x00,0x80,0x3f,0x00,0x1e,0x80,0x44,0x00,0x01,0x90,0x31,
0x43,0x82,0x06,0x80,0x49,0x00,0x01,0x90,0x49,0x40,0x81,0x58,0x80,0x31,0x00,0x0f,
0x80,0x49,0x00,0x10,0x90,0x48,0x40,0x00,0x90,0x3a,0x38,0x00,0x90,0x3d,0x38,0x00,
0x90,0x42,0x46,0x83,0x5a,0x80,0x48,0x00,0x00,0x80,0x3a,0x00,0x00,0x80,0x3d,0x00,
0x1e,0x80,0x42,0x00,0x01,0x90,0x46,0x41,0x00,0x90,0x2c,0x41,0x83,0x5a,0x80,0x46,
0x00,0x00,0x80,0x2c,0x00,0x1f,0x90,0x44,0x40,0x00,0x90,0x3a,0x38,0x00,0x90,0x3d,
0x38,0x00,0x90,0x42,0x46,0x83,0x5c,0x80,0x3a,0x00,0x00,0x80,0x3d,0x00,0x1e,0x80,
0x44,0x00,0x00,0x80,0x42,0x00,0x05,0x90,0x44,0x45,0x00,0x90,0x31,0x45,0x83,0x7f,
0x80,0x44,0x00,0x00,0x80,0x31,0x00,0x1f,0x90,0x49,0x40,0x00,0x90,0x38,0x38,0x00,
0x90,0x3d,0x38,0x00,0x90,0x41,0x46,0x83,0x5d,0x80,0x49,0x00,0x00,0x80,0x38,0x00,
0x00,0x80,0x3d,0x00,0x1e,0x80,0x41,0x00,0x01,0x90,0x4b,0x41,0x00,0x90,0x2c,0x41,
0x83,0x5a,0x80,0x4b,0x00,0x00,0x80,0x2c,0x00,0x1f,0x90,0x49,0x40,0x00,0x90,0x38,
0x38,0x00,0x90,0x3d,0x38,0x00,0x90,0x41,0x46,0x81,0x68,0x80,0x49,0x00,0x10,0x90,
0x44,0x40,0x81,0x67,0x80,0x38,0x00,0x00,0x80,0x3d,0x00,0x1e,0x80,0x41,0x00,0x01,
0x90,0x31,0x43,0x82,0x06,0x80,0x44,0x00,0x01,0x90,0x44,0x40,0x81,0x58,0x80,0x31,
0x00,0x0f,0x80,0x44,0x00,0x10,0x90,0x49,0x40,0x00,0x90,0x3a,0x38,0x00,0x90,0x3d,
0x38,0x00,0x90,0x42,0x46,0x83,0x5a,0x80,0x49,0x00,0x00,0x80,0x3a,0x00,0x00,0x80,
0x3d,0x00,0x1e,0x80,0x42,0x00,0x01,0x90,0x4b,0x41,0x00,0x90,0x2c,0x41,0x83,0x5a,
0x80,0x4b,0x00,0x00,0x80,0x2c,0x00,0x1f,0x90,0x49,0x40,0x00,0x90,0x3a,0x38,0x00,
0x90,0x3d,0x38,0x00,0x90,0x42,0x46,0x83,0x5c,0x80,0x49,0x00,0x00,0x80,0x3a,0x00,
0x1e,0x80,0x3d,0x00,0x00,0x80,0x42,0x00,0x05,0x90,0x44,0x45,0x00,0x90,0x31,0x45,
0x83,0x7f,0x80,0x44,0x00,0x00,0x80,0x31,0x00,0x1f,0x90,0x49,0x40,0x00,0x90,0x3d,
0x38,0x00,0x90,0x41,0x38,0x00,0x90,0x44,0x46,0x83,0x5d,0x80,0x49,0x00,0x00,0x80,
0x3d,0x00,0x00,0x80,0x41,0x00,0x1e,0x80,0x44,0x00,0x01,0x90,0x4b,0x41,0x00,0x90,
0x2c,0x41,0x83,0x5a,0x80,0x4b,0x00,0x00,0x80,0x2c,0x00,0x1f,0x90,0x49,0x40,0x00,
0x90,0x3d,0x38,0x00,0x90,0x41,0x38,0x00,0x90,0x44,0x46,0x81,0x68,0x80,0x49,0x00,
0x10,0x90,0x4e,0x40,0x81,0x67,0x80,0x3d,0x00,0x00,0x80,0x41,0x00,0x1e,0x80,0x44,
0x00,0x01,0x90,0x31,0x43,0x83,0x5f,0x80,0x4e,0x00,0x00,0x80,0x31,0x00,0x1f,0x90,
0x4d,0x40,0x00,0x90,0x3d,0x38,0x00,0x90,0x41,0x38,0x00,0x90,0x44,0x46,0x83,0x5a,
0x80,0x4d,0x00,0x00,0x80,0x3d,0x00,0x00,0x80,0x41,0x00,0x1e,0x80,0x44,0x00,0x01,
0x90,0x4b,0x41,0x00,0x90,0x2c,0x41,0x83,0x5a,0x80,0x4b,0x00,0x00,0x80,0x2c,0x00,
0x1f,0x90,0x49,0x40,0x00,0x90,0x3d,0x38,0x00,0x90,0x41,0x38,0x00,0x90,0x44,0x46,
0x83,0x5c,0x80,0x49,0x00,0x00,0x80,0x3d,0x00,0x00,0x80,0x41,0x00,0x1e,0x80,0x44,
0x00,0x05,0x90,0x50,0x45,0x00,0x90,0x2a,0x45,0x83,0x7f,0x80,0x50,0x00,0x00,0x80,
0x2a,0x00,0x1f,0x90,0x52,0x40,0x00,0x90,0x38,0x38,0x00,0x90,0x3d,0x38,0x00,0x90,
0x41,0x46,0x83,0x5d,0x80,0x52,0x00,0x00,0x80,0x38,0x00,0x00,0x80,0x3d,0x00,0x1e,
0x80,0x41,0x00,0x01,0x90,0x50,0x41,0x00,0x90,0x31,0x41,0x81,0x72,0x80,0x50,0x00,
0x10,0x90,0x4d,0x40,0x81,0x58,0x80,0x31,0x00,0x1f,0x90,0x38,0x38,0x00,0x90,0x3d,
0x38,0x00,0x90,0x41,0x46,0x81,0x59,0x80,0x4d,0x00,0x1f,0x90,0x49,0x40,0x81,0x67,
0x80,0x38,0x00,0x00,0x80,0x3d,0x00,0x1e,0x80,0x41,0x00,0x01,0x90,0x2a,0x43,0x83,
0x5f,0x80,0x2a,0x00,0x1f,0x90,0x38,0x38,0x00,0x90,0x3d,0x38,0x00,0x90,0x41,0x46,
0x83,0x5a,0x80,0x38,0x00,0x00,0x80,0x3d,0x00,0x1e,0x80,0x41,0x00,0x01,0x90,0x31,
0x41,0x83,0x5a,0x80,0x31,0x00,0x1e,0x80,0x49,0x00,0x01,0x90,0x4b,0x34,0x00,0x90,
0x38,0x38,0x00,0x90,0x3d,0x38,0x00,0x90,0x41,0x46,0x83,0x5c,0x80,0x38,0x00,0x00,
0x80,0x3d,0x00,0x1e,0x80,0x4b,0x00,0x00,0x80,0x41,0x00,0x05,0x90,0x4b,0x39,0x00,
0x90,0x2a,0x45,0x83,0x7f,0x80,0x2a,0x00,0x1f,0x90,0x49,0x40,0x00,0x90,0x3c,0x38,
0x00,0x90,0x3f,0x38,0x00,0x90,0x44,0x46,0x1e,0x80,0x4b,0x00,0x81,0x4b,0x80,0x49,
0x00,0x10,0x90,0x48,0x40,0x81,0x64,0x80,0x3c,0x00,0x00,0x80,0x3f,0x00,0x0f,0x80,
0x48,0x00,0x0f,0x80,0x44,0x00,0x01,0x90,0x49,0x41,0x00,0x90,0x31,0x41,0x83,0x5a,
0x80,0x49,0x00,0x00,0x80,0x31,0x00,0x1f,0x90,0x50,0x40,0x00,0x90,0x3c,0x38,0x00,
0x90,0x3f,0x38,0x00,0x90,0x44,0x46,0x83,0x5f,0x80,0x3c,0x00,0x00,0x80,0x3f,0x00,
0x1e,0x80,0x44,0x00,0x01,0x90,0x2a,0x43,0x83,0x5f,0x80,0x2a,0x00,0x1f,0x90,0x3a,
0x38,0x00,0x90,0x3d,0x38,0x00,0x90,0x42,0x46,0x83,0x5a,0x80,0x3a,0x00,0x00,0x80,
0x3d,0x00,0x1e,0x80,0x42,0x00,0x01,0x90,0x31,0x41,0x83,0x5a,0x80,0x31,0x00,0x1e,
0x80,0x50,0x00,0x01,0x90,0x50,0x40,0x00,0x90,0x3a,0x38,0x00,0x90,0x3d,0x38,0x00,
0x90,0x42,0x46,0x83,0x5c,0x80,0x3a,0x00,0x00,0x80,0x3d,0x00,0x1e,0x80,0x50,0x00,
0x00,0x80,0x42,0x00,0x05,0x90,0x50,0x45,0x00,0x90,0x2f,0x45,0x83,0x7f,0x80,0x50,
0x00,0x00,0x80,0x2f,0x00,0x1f,0x90,0x52,0x40,0x00,0x90,0x38,0x38,0x00,0x90,0x3d,
0x38,0x00,0x90,0x41,0x46,0x83,0x5d,0x80,0x52,0x00,0x00,0x80,0x38,0x00,0x00,0x80,
0x3d,0x00,0x1e,0x80,0x41,0x00,0x01,0x90,0x50,0x41,0x00,0x90,0x36,0x41,0x81,0x72,
0x80,0x50,0x00,0x10,0x90,0x4d,0x40,0x81,0x58,0x80,0x36,0x00,0x1f,0x90,0x38,0x38,
0x00,0x90,0x3d,0x38,0x00,0x90,0x41,0x46,0x81,0x59,0x80,0x4d,0x00,0x1f,0x90,0x49,
0x40,0x81,0x67,0x80,0x38,0x00,0x00,0x80,0x3d,0x00,0x1e,0x80,0x41,0x00,0x01,0x90,
0x2f,0x43,0x83,0x5f,0x80,0x2f,0x00,0x1f,0x90,0x38,0x38,0x00,0x90,0x3d,0x38,0x00,
0x90,0x41,0x46,0x83,0x5a,0x80,0x38,0x00,0x00,0x80,0x3d,0x00,0x1e,0x80,0x41,0x00,
0x01,0x90,0x36,0x41,0x83,0x5a,0x80,0x36,0x00,0x1e,0x80,0x49,0x00,0x01,0x90,0x4b,
0x34,0x00,0x90,0x38,0x38,0x00,0x90,0x3d,0x38,0x00,0x90,0x41,0x46,0x83,0x5c,0x80,
0x38,0x00,0x00,0x80,0x3d,0x00,0x1e,0x80,0x4b,0x00,0x00,0x80,0x41,0x00,0x05,0x90,
0x4b,0x39,0x00,0x90,0x2f,0x45,0x83,0x7f,0x80,0x2f,0x00,0x1f,0x90,0x49,0x40,0x00,
0x90,0x3a,0x38,0x00,0x90,0x3d,0x38,0x00,0x90,0x42,0x46,0x1e,0x80,0x4b,0x00,0x81,
0x4b,0x80,0x49,0x00,0x10,0x90,0x48,0x40,0x81,0x64,0x80,0x3a,0x00,0x00,0x80,0x3d,
0x00,0x0f,0x80,0x48,0x00,0x0f,0x80,0x42,0x00,0x01,0x90,0x49,0x41,0x00,0x90,0x36,
0x41,0x83,0x5a,0x80,0x49,0x00,0x00,0x80,0x36,0x00,0x1f,0x90,0x50,0x40,0x00,0x90,
0x3a,0x38,0x00,0x90,0x3d,0x38,0x00,0x90,0x42,0x46,0x83,0x5f,0x80,0x3a,0x00,0x00,
0x80,0x3d,0x00,0x1e,0x80,0x42,0x00,0x01,0x90,0x33,0x43,0x83,0x5f,0x80,0x33,0x00,
0x1f,0x90,0x3c,0x38,0x00,0x90,0x3f,0x38,0x00,0x90,0x44,0x46,0x83,0x5a,0x80,0x3c,
0x00,0x00,0x80,0x3f,0x00,0x1e,0x80,0x44,0x00,0x01,0x90,0x2c,0x41,0x83,0x5a,0x80,
0x2c,0x00,0x1e,0x80,0x50,0x00,0x01,0x90,0x50,0x40,0x00,0x90,0x3c,0x38,0x00,0x90,
0x3f,0x38,0x00,0x90,0x44,0x46,0x83,0x5c,0x80,0x50,0x00,0x00,0x80,0x3c,0x00,0x00,
0x80,0x3f,0x00,0x1e,0x80,0x44,0x00,0x05,0x90,0x38,0x45,0x82,0x15,0x80,0x38,0x00,
0x10,0x90,0x3d,0x40,0x81,0x69,0x80,0x3d,0x00,0x10,0x90,0x4d,0x40,0x00,0x90,0x41,
0x40,0x81,0x69,0x80,0x41,0x00,0x10,0x90,0x38,0x40,0x81,0x64,0x80,0x4d,0x00,0x0f,
0x80,0x38,0x00,0x10,0x90,0x4e,0x41,0x82,0x02,0x90,0x38,0x38,0x00,0x90,0x3d,0x38,
0x00,0x90,0x41,0x42,0x81,0x58,0x80,0x4e,0x00,0x1e,0x80,0x38,0x00,0x00,0x80,0x3d,
0x00,0x00,0x80,0x41,0x00,0x01,0x90,0x50,0x40,0x00,0x90,0x38,0x38,0x00,0x90,0x3d,
0x38,0x00,0x90,0x41,0x42,0x83,0x5f,0x80,0x50,0x00,0x00,0x80,0x38,0x00,0x1e,0x80,
0x3d,0x00,0x00,0x80,0x41,0x00,0x01,0x90,0x55,0x43,0x00,0x90,0x3a,0x43,0x81,0x77,
0x80,0x3a,0x00,0x10,0x90,0x3d,0x40,0x81,0x67,0x80,0x3d,0x00,0x10,0x90,0x42,0x40,
0x81,0x68,0x80,0x42,0x00,0x0f,0x80,0x55,0x00,0x01,0x90,0x55,0x40,0x00,0x90,0x3a,
0x40,0x81,0x71,0x80,0x3a,0x00,0x82,0x11,0x90,0x3a,0x38,0x00,0x90,0x3d,0x38,0x00,
0x90,0x42,0x42,0x81,0x59,0x80,0x55,0x00,0x1e,0x80,0x3a,0x00,0x00,0x80,0x3d,0x00,
0x00,0x80,0x42,0x00,0x01,0x90,0x57,0x40,0x00,0x90,0x3a,0x38,0x00,0x90,0x3d,0x38,
0x00,0x90,0x42,0x42,0x83,0x5c,0x80,0x3a,0x00,0x00,0x80,0x3d,0x00,0x1e,0x80,0x42,
0x00,0x05,0x90,0x3c,0x45,0x82,0x15,0x80,0x3c,0x00,0x10,0x90,0x3f,0x40,0x81,0x5a,
0x80,0x57,0x00,0x0f,0x80,0x3f,0x00,0x10,0x90,0x54,0x40,0x00,0x90,0x44,0x40,0x81,
0x69,0x80,0x44,0x00,0x10,0x90,0x3c,0x40,0x81,0x73,0x80,0x3c,0x00,0x82,0x12,0x90,
0x3c,0x38,0x00,0x90,0x3f,0x38,0x00,0x90,0x44,0x42,0x81,0x76,0x80,0x54,0x00,0x00,
0x80,0x3c,0x00,0x00,0x80,0x3f,0x00,0x00,0x80,0x44,0x00,0x01,0x90,0x50,0x40,0x00,
0x90,0x3c,0x38,0x00,0x90,0x3f,0x38,0x00,0x90,0x44,0x42,0x83,0x5f,0x80,0x3c,0x00,
0x00,0x80,0x3f,0x00,0x1e,0x80,0x44,0x00,0x01,0x90,0x3a,0x43,0x81,0x77,0x80,0x3a,
0x00,0x10,0x90,0x3d,0x40,0x81,0x67,0x80,0x3d,0x00,0x10,0x90,0x42,0x40,0x81,0x68,
0x80,0x42,0x00,0x10,0x90,0x3a,0x40,0x81,0x71,0x80,0x3a,0x00,0x82,0x11,0x90,0x3a,
0x38,0x00,0x90,0x3d,0x38,0x00,0x90,0x42,0x42,0x81,0x77,0x80,0x3a,0x00,0x00,0x80,
0x3d,0x00,0x00,0x80,0x42,0x00,0x01,0x90,0x3a,0x38,0x00,0x90,0x3d,0x38,0x00,0x90,
0x42,0x42,0x83,0x5c,0x80,0x3a,0x00,0x1e,0x80,0x50,0x00,0x00,0x80,0x3d,0x00,0x00,
0x80,0x42,0x00,0x05,0x90,0x50,0x45,0x00,0x90,0x38,0x45,0x82,0x15,0x80,0x38,0x00,
0x10,0x90,0x3d,0x40,0x81,0x5a,0x80,0x50,0x00,0x0f,0x80,0x3d,0x00,0x10,0x90,0x4e,
0x40,0x00,0x90,0x41,0x40,0x81,0x69,0x80,0x41,0x00,0x10,0x90,0x38,0x40,0x81,0x64,
0x80,0x4e,0x00,0x0f,0x80,0x38,0x00,0x10,0x90,0x4d,0x41,0x81,0x72,0x80,0x4d,0x00,
0x10,0x90,0x4b,0x40,0x00,0x90,0x38,0x38,0x00,0x90,0x3d,0x38,0x00,0x90,0x41,0x42,
0x81,0x76,0x80,0x38,0x00,0x00,0x80,0x3d,0x00,0x00,0x80,0x41,0x00,0x01,0x90,0x38,
0x38,0x00,0x90,0x3d,0x38,0x00,0x90,0x41,0x42,0x81,0x59,0x80,0x4b,0x00,0x1f,0x90,
0x49,0x40,0x81,0x67,0x80,0x38,0x00,0x1e,0x80,0x3d,0x00,0x00,0x80,0x41,0x00,0x01,
0x90,0x3a,0x43,0x81,0x77,0x80,0x3a,0x00,0x10,0x90,0x3d,0x40,0x81,0x67,0x80,0x3d,
0x00,0x10,0x90,0x42,0x40,0x81,0x68,0x80,0x42,0x00,0x10,0x90,0x3a,0x40,0x81,0x71,
0x80,0x3a,0x00,0x82,0x11,0x90,0x3a,0x38,0x00,0x90,0x3d,0x38,0x00,0x90,0x42,0x42,
0x81,0x77,0x80,0x3a,0x00,0x00,0x80,0x3d,0x00,0x00,0x80,0x42,0x00,0x01,0x90,0x3a,
0x38,0x00,0x90,0x3d,0x38,0x00,0x90,0x42,0x42,0x83,0x5c,0x80,0x3a,0x00,0x00,0x80,
0x3d,0x00,0x1e,0x80,0x49,0x00,0x00,0x80,0x42,0x00,0x05,0x90,0x3c,0x45,0x82,0x15,
0x80,0x3c,0x00,0x10,0x90,0x3f,0x40,0x81,0x69,0x80,0x3f,0x00,0x10,0x90,0x44,0x40,
0x81,0x69,0x80,0x44,0x00,0x10,0x90,0x3c,0x40,0x81,0x73,0x80,0x3c,0x00,0x82,0x12,
0x90,0x3c,0x38,0x00,0x90,0x3f,0x38,0x00,0x90,0x44,0x42,0x81,0x76,0x80,0x3c,0x00,
0x00,0x80,0x3f,0x00,0x00,0x80,0x44,0x00,0x01,0x90,0x3c,0x38,0x00,0x90,0x3f,0x38,
0x00,0x90,0x44,0x42,0x83,0x5f,0x80,0x3c,0x00,0x00,0x80,0x3f,0x00,0x1e,0x80,0x44,
0x00,0x01,0x90,0x3a,0x43,0x81,0x77,0x80,0x3a,0x00,0x10,0x90,0x3d,0x40,0x81,0x67,
0x80,0x3d,0x00,0x10,0x90,0x42,0x40,0x81,0x68,0x80,0x42,0x00,0x10,0x90,0x3a,0x40,
0x81,0x71,0x80,0x3a,0x00,0x82,0x11,0x90,0x3a,0x38,0x00,0x90,0x3d,0x38,0x00,0x90,
0x42,0x42,0x81,0x77,0x80,0x3a,0x00,0x00,0x80,0x3d,0x00,0x00,0x80,0x42,0x00,0x01,
0x90,0x3a,0x38,0x00,0x90,0x3d,0x38,0x00,0x90,0x42,0x42,0x83,0x5c,0x80,0x3a,0x00,
0x1e,0x80,0x3d,0x00,0x00,0x80,0x42,0x00,0x05,0x90,0x38,0x45,0x82,0x15,0x80,0x38,
0x00,0x10,0x90,0x3d,0x40,0x81,0x69,0x80,0x3d,0x00,0x10,0x90,0x4d,0x40,0x00,0x90,
0x41,0x40,0x81,0x69,0x80,0x41,0x00,0x10,0x90,0x38,0x40,0x81,0x64,0x80,0x4d,0x00,
0x0f,0x80,0x38,0x00,0x10,0x90,0x4e,0x41,0x82,0x02,0x90,0x38,0x38,0x00,0x90,0x3d,
0x38,0x00,0x90,0x41,0x42,0x81,0x58,0x80,0x4e,0x00,0x1e,0x80,0x38,0x00,0x00,0x80,
0x3d,0x00,0x00,0x80,0x41,0x00,0x01,0x90,0x50,0x40,0x00,0x90,0x38,0x38,0x00,0x90,
0x3d,0x38,0x00,0x90,0x41,0x42,0x83,0x5f,0x80,0x50,0x00,0x00,0x80,0x38,0x00,0x1e,
0x80,0x3d,0x00,0x00,0x80,0x41,0x00,0x01,0x90,0x55,0x43,0x00,0x90,0x3a,0x43,0x81,
0x77,0x80,0x3a,0x00,0x10,0x90,0x3d,0x40,0x81,0x67,0x80,0x3d,0x00,0x10,0x90,0x42,
0x40,0x81,0x68,0x80,0x42,0x00,0x0f,0x80,0x55,0x00,0x01,0x90,0x55,0x40,0x00,0x90,
0x3a,0x40,0x81,0x71,0x80,0x3a,0x00,0x82,0x11,0x90,0x3a,0x38,0x00,0x90,0x3d,0x38,
0x00,0x90,0x42,0x42,0x81,0x59,0x80,0x55,0x00,0x1e,0x80,0x3a,0x00,0x00,0x80,0x3d,
0x00,0x00,0x80,0x42,0x00,0x01,0x90,0x57,0x40,0x00,0x90,0x3a,0x38,0x00,0x90,0x3d,
0x38,0x00,0x90,0x42,0x42,0x83,0x5c,0x80,0x3a,0x00,0x00,0x80,0x3d,0x00,0x1e,0x80,
0x42,0x00,0x05,0x90,0x3c,0x45,0x82,0x15,0x80,0x3c,0x00,0x10,0x90,0x3f,0x40,0x81,
0x5a,0x80,0x57,0x00,0x0f,0x80,0x3f,0x00,0x10,0x90,0x54,0x40,0x00,0x90,0x44,0x40,
0x81,0x69,0x80,0x44,0x00,0x10,0x90,0x3c,0x40,0x81,0x73,0x80,0x3c,0x00,0x82,0x12,
0x90,0x3c,0x38,0x00,0x90,0x3f,0x38,0x00,0x90,0x44,0x42,0x81,0x76,0x80,0x54,0x00,
0x00,0x80,0x3c,0x00,0x00,0x80,0x3f,0x00,0x00,0x80,0x44,0x00,0x01,0x90,0x50,0x40,
0x00,0x90,0x3c,0x38,0x00,0x90,0x3f,0x38,0x00,0x90,0x44,0x42,0x83,0x5f,0x80,0x3c,
0x00,0x00,0x80,0x3f,0x00,0x1e,0x80,0x44,0x00,0x01,0x90,0x3a,0x43,0x81,0x77,0x80,
0x3a,0x00,0x10,0x90,0x3d,0x40,0x81,0x67,0x80,0x3d,0x00,0x10,0x90,0x42,0x40,0x81,
0x68,0x80,0x42,0x00,0x10,0x90,0x3a,0x40,0x81,0x71,0x80,0x3a,0x00,0x82,0x11,0x90,
0x3a,0x38,0x00,0x90,0x3d,0x38,0x00,0x90,0x42,0x42,0x81,0x77,0x80,0x3a,0x00,0x00,
0x80,0x3d,0x00,0x00,0x80,0x42,0x00,0x01,0x90,0x3a,0x38,0x00,0x90,0x3d,0x38,0x00,
0x90,0x42,0x42,0x83,0x5c,0x80,0x3a,0x00,0x1e,0x80,0x50,0x00,0x00,0x80,0x3d,0x00,
0x00,0x80,0x42,0x00,0x05,0x90,0x50,0x45,0x00,0x90,0x38,0x45,0x82,0x15,0x80,0x38,
0x00,0x10,0x90,0x3d,0x40,0x81,0x5a,0x80,0x50,0x00,0x0f,0x80,0x3d,0x00,0x10,0x90,
0x4e,0x40,0x00,0x90,0x41,0x40,0x81,0x69,0x80,0x41,0x00,0x10,0x90,0x38,0x40,0x81,
0x64,0x80,0x4e,0x00,0x0f,0x80,0x38,0x00,0x10,0x90,0x4d,0x41,0x81,0x72,0x80,0x4d,
0x00,0x10,0x90,0x4b,0x40,0x00,0x90,0x38,0x38,0x00,0x90,0x3d,0x38,0x00,0x90,0x41,
0x42,0x81,0x76,0x80,0x38,0x00,0x00,0x80,0x3d,0x00,0x00,0x80,0x41,0x00,0x01,0x90,
0x38,0x38,0x00,0x90,0x3d,0x38,0x00,0x90,0x41,0x42,0x81,0x59,0x80,0x4b,0x00,0x1f,
0x90,0x49,0x40,0x81,0x67,0x80,0x38,0x00,0x1e,0x80,0x3d,0x00,0x00,0x80,0x41,0x00,
0x01,0x90,0x3a,0x43,0x81,0x77,0x80,0x3a,0x00,0x10,0x90,0x3d,0x40,0x81,0x67,0x80,
0x3d,0x00,0x10,0x90,0x42,0x40,0x81,0x68,0x80,0x42,0x00,0x10,0x90,0x3a,0x40,0x81,
0x71,0x80,0x3a,0x00,0x82,0x11,0x90,0x3a,0x38,0x00,0x90,0x3d,0x38,0x00,0x90,0x42,
0x42,0x81,0x77,0x80,0x3a,0x00,0x00,0x80,0x3d,0x00,0x00,0x80,0x42,0x00,0x01,0x90,
0x3a,0x38,0x00,0x90,0x3d,0x38,0x00,0x90,0x42,0x42,0x83,0x5c,0x80,0x3a,0x00,0x00,
0x80,0x3d,0x00,0x1e,0x80,0x49,0x00,0x00,0x80,0x42,0x00,0x05,0x90,0x3c,0x45,0x82,
0x15,0x80,0x3c,0x00,0x10,0x90,0x3f,0x40,0x81,0x69,0x80,0x3f,0x00,0x10,0x90,0x44,
0x40,0x81,0x69,0x80,0x44,0x00,0x10,0x90,0x3c,0x40,0x81,0x73,0x80,0x3c,0x00,0x82,
0x12,0x90,0x3c,0x38,0x00,0x90,0x3f,0x38,0x00,0x90,0x44,0x42,0x81,0x76,0x80,0x3c,
0x00,0x00,0x80,0x3f,0x00,0x00,0x80,0x44,0x00,0x01,0x90,0x3c,0x38,0x00,0x90,0x3f,
0x38,0x00,0x90,0x44,0x42,0x83,0x5f,0x80,0x3c,0x00,0x00,0x80,0x3f,0x00,0x1e,0x80,
0x44,0x00,0x01,0x90,0x3a,0x43,0x81,0x77,0x80,0x3a,0x00,0x10,0x90,0x3d,0x40,0x81,
0x67,0x80,0x3d,0x00,0x10,0x90,0x42,0x40,0x81,0x68,0x80,0x42,0x00,0x10,0x90,0x3a,
0x40,0x81,0x71,0x80,0x3a,0x00,0x82,0x11,0x90,0x3a,0x38,0x00,0x90,0x3d,0x38,0x00,
0x90,0x42,0x42,0x81,0x77,0x80,0x3a,0x00,0x00,0x80,0x3d,0x00,0x00,0x80,0x42,0x00,
0x01,0x90,0x3a,0x38,0x00,0x90,0x3d,0x38,0x00,0x90,0x42,0x42,0x83,0x5c,0x80,0x3a,
0x00,0x00,0x80,0x3d,0x00,0x00,0x80,0x42,0x00,0x1f,0xb0,0x07,0x66,0x00,0xb0,0x07,
0x6e,0x0a,0xb0,0x07,0x66,0x00,0xb0,0x07,0x6e,0x00,0x90,0x44,0x45,0x00,0x90,0x31,
0x45,0x83,0x79,0x80,0x44,0x00,0x00,0x80,0x31,0x00,0x1f,0x90,0x49,0x40,0x00,0x90,
0x38,0x38,0x00,0x90,0x3d,0x38,0x00,0x90,0x41,0x46,0x83,0x5d,0x80,0x49,0x00,0x00,
0x80,0x38,0x00,0x00,0x80,0x3d,0x00,0x1e,0x80,0x41,0x00,0x01,0x90,0x4b,0x41,0x00,
0x90,0x2c,0x41,0x83,0x5a,0x80,0x4b,0x00,0x00,0x80,0x2c,0x00,0x1f,0x90,0x49,0x40,
0x00,0x90,0x38,0x38,0x00,0x90,0x3d,0x38,0x00,0x90,0x41,0x46,0x81,0x68,0x80,0x49,
0x00,0x10,0x90,0x44,0x40,0x81,0x67,0x80,0x38,0x00,0x00,0x80,0x3d,0x00,0x1e,0x80,
0x41,0x00,0x01,0x90,0x31,0x43,0x82,0x06,0x80,0x44,0x00,0x01,0x90,0x44,0x40,0x81,
0x58,0x80,0x31,0x00,0x0f,0x80,0x44,0x00,0x10,0x90,0x49,0x40,0x00,0x90,0x3a,0x38,
0x00,0x90,0x3d,0x38,0x00,0x90,0x42,0x46,0x83,0x5a,0x80,0x49,0x00,0x00,0x80,0x3a,
0x00,0x00,0x80,0x3d,0x00,0x1e,0x80,0x42,0x00,0x01,0x90,0x4b,0x41,0x00,0x90,0x2c,
0x41,0x83,0x5a,0x80,0x4b,0x00,0x00,0x80,0x2c,0x00,0x1f,0x90,0x49,0x40,0x00,0x90,
0x3a,0x38,0x00,0x90,0x3d,0x38,0x00,0x90,0x42,0x46,0x83,0x5c,0x80,0x49,0x00,0x00,
0x80,0x3a,0x00,0x00,0x80,0x3d,0x00,0x1e,0x80,0x42,0x00,0x05,0x90,0x44,0x45,0x00,
0x90,0x31,0x45,0x83,0x7f,0x80,0x44,0x00,0x00,0x80,0x31,0x00,0x1f,0x90,0x49,0x40,
0x00,0x90,0x3c,0x38,0x00,0x90,0x3f,0x38,0x00,0x90,0x44,0x46,0x83,0x5d,0x80,0x49,
0x00,0x00,0x80,0x3c,0x00,0x00,0x80,0x3f,0x00,0x1e,0x80,0x44,0x00,0x01,0x90,0x4b,
0x41,0x00,0x90,0x2c,0x41,0x83,0x5a,0x80,0x4b,0x00,0x00,0x80,0x2c,0x00,0x1f,0x90,
0x49,0x40,0x00,0x90,0x3c,0x38,0x00,0x90,0x3f,0x38,0x00,0x90,0x44,0x46,0x81,0x68,
0x80,0x49,0x00,0x10,0x90,0x4e,0x40,0x81,0x67,0x80,0x3c,0x00,0x00,0x80,0x3f,0x00,
0x1e,0x80,0x44,0x00,0x01,0x90,0x31,0x43,0x82,0x06,0x80,0x4e,0x00,0x01,0x90,0x4e,
0x40,0x81,0x58,0x80,0x31,0x00,0x0f,0x80,0x4e,0x00,0x10,0x90,0x4d,0x40,0x00,0x90,
0x3a,0x38,0x00,0x90,0x3d,0x38,0x00,0x90,0x42,0x46,0x83,0x5a,0x80,0x4d,0x00,0x00,
0x80,0x3a,0x00,0x00,0x80,0x3d,0x00,0x1e,0x80,0x42,0x00,0x01,0x90,0x4b,0x41,0x00,
0x90,0x2c,0x41,0x83,0x5a,0x80,0x4b,0x00,0x00,0x80,0x2c,0x00,0x1f,0x90,0x49,0x40,
0x00,0x90,0x3a,0x38,0x00,0x90,0x3d,0x38,0x00,0x90,0x42,0x46,0x83,0x5c,0x80,0x49,
0x00,0x00,0x80,0x3a,0x00,0x00,0x80,0x3d,0x00,0x1e,0x80,0x42,0x00,0x05,0x90,0x44,
0x45,0x00,0x90,0x31,0x45,0x83,0x7f,0x80,0x44,0x00,0x00,0x80,0x31,0x00,0x1f,0x90,
0x49,0x40,0x00,0x90,0x38,0x38,0x00,0x90,0x3d,0x38,0x00,0x90,0x41,0x46,0x83,0x5d,
0x80,0x49,0x00,0x00,0x80,0x38,0x00,0x00,0x80,0x3d,0x00,0x1e,0x80,0x41,0x00,0x01,
0x90,0x4b,0x41,0x00,0x90,0x2c,0x41,0x83,0x5a,0x80,0x4b,0x00,0x00,0x80,0x2c,0x00,
0x1f,0x90,0x49,0x40,0x00,0x90,0x38,0x38,0x00,0x90,0x3d,0x38,0x00,0x90,0x41,0x46,
0x81,0x68,0x80,0x49,0x00,0x10,0x90,0x44,0x40,0x81,0x67,0x80,0x38,0x00,0x00,0x80,
0x3d,0x00,0x1e,0x80,0x41,0x00,0x01,0x90,0x31,0x43,0x82,0x06,0x80,0x44,0x00,0x01,
0x90,0x44,0x40,0x81,0x58,0x80,0x31,0x00,0x0f,0x80,0x44,0x00,0x10,0x90,0x49,0x40,
0x00,0x90,0x3a,0x38,0x00,0x90,0x3d,0x38,0x00,0x90,0x42,0x46,0x83,0x5a,0x80,0x49,
0x00,0x00,0x80,0x3a,0x00,0x00,0x80,0x3d,0x00,0x1e,0x80,0x42,0x00,0x01,0x90,0x4b,
0x41,0x00,0x90,0x2c,0x41,0x83,0x5a,0x80,0x4b,0x00,0x00,0x80,0x2c,0x00,0x1f,0x90,
0x49,0x40,0x00,0x90,0x3a,0x38,0x00,0x90,0x3d,0x38,0x00,0x90,0x42,0x46,0x83,0x5c,
0x80,0x49,0x00,0x00,0x80,0x3a,0x00,0x00,0x80,0x3d,0x00,0x1e,0x80,0x42,0x00,0x05,
0x90,0x44,0x45,0x00,0x90,0x31,0x45,0x83,0x7f,0x80,0x44,0x00,0x00,0x80,0x31,0x00,
0x1f,0x90,0x42,0x40,0x00,0x90,0x3c,0x38,0x00,0x90,0x3f,0x38,0x00,0x90,0x44,0x46,
0x81,0x69,0x80,0x42,0x00,0x10,0x90,0x41,0x40,0x81,0x64,0x80,0x3c,0x00,0x00,0x80,
0x3f,0x00,0x0f,0x80,0x41,0x00,0x0f,0x80,0x44,0x00,0x01,0x90,0x42,0x41,0x00,0x90,
0x2c,0x41,0x83,0x5a,0x80,0x42,0x00,0x00,0x80,0x2c,0x00,0x1f,0x90,0x49,0x40,0x00,
0x90,0x3c,0x38,0x00,0x90,0x3f,0x38,0x00,0x90,0x44,0x46,0x83,0x5f,0x80,0x3c,0x00,
0x00,0x80,0x3f,0x00,0x1e,0x80,0x44,0x00,0x01,0x90,0x31,0x43,0x83,0x5f,0x80,0x31,
0x00,0x1f,0x90,0x3a,0x38,0x00,0x90,0x3d,0x38,0x00,0x90,0x42,0x46,0x83,0x5a,0x80,
0x3a,0x00,0x00,0x80,0x3d,0x00,0x1e,0x80,0x42,0x00,0x01,0x90,0x2c,0x41,0x83,0x5a,
0x80,0x2c,0x00,0x1f,0x90,0x3a,0x38,0x00,0x90,0x3d,0x38,0x00,0x90,0x42,0x46,0x83,
0x5c,0x80,0x3a,0x00,0x00,0x80,0x3d,0x00,0x1e,0x80,0x49,0x00,0x00,0x80,0x42,0x00,
0x05,0x90,0x44,0x45,0x00,0x90,0x31,0x45,0x83,0x7f,0x80,0x44,0x00,0x00,0x80,0x31,
0x00,0x1f,0x90,0x49,0x40,0x00,0x90,0x38,0x38,0x00,0x90,0x3d,0x38,0x00,0x90,0x41,
0x46,0x83,0x5d,0x80,0x49,0x00,0x00,0x80,0x38,0x00,0x00,0x80,0x3d,0x00,0x1e,0x80,
0x41,0x00,0x01,0x90,0x4b,0x41,0x00,0x90,0x2c,0x41,0x83,0x5a,0x80,0x4b,0x00,0x00,
0x80,0x2c,0x00,0x1f,0x90,0x49,0x40,0x00,0x90,0x38,0x38,0x00,0x90,0x3d,0x38,0x00,
0x90,0x41,0x46,0x81,0x68,0x80,0x49,0x00,0x10,0x90,0x44,0x40,0x81,0x67,0x80,0x38,
0x00,0x00,0x80,0x3d,0x00,0x1e,0x80,0x41,0x00,0x01,0x90,0x31,0x43,0x82,0x06,0x80,
0x44,0x00,0x01,0x90,0x44,0x40,0x81,0x58,0x80,0x31,0x00,0x0f,0x80,0x44,0x00,0x10,
0x90,0x49,0x40,0x00,0x90,0x3a,0x38,0x00,0x90,0x3d,0x38,0x00,0x90,0x42,0x46,0x83,
0x5a,0x80,0x49,0x00,0x00,0x80,0x3a,0x00,0x00,0x80,0x3d,0x00,0x1e,0x80,0x42,0x00,
0x01,0x90,0x4b,0x41,0x00,0x90,0x2c,0x41,0x83,0x5a,0x80,0x4b,0x00,0x00,0x80,0x2c,
0x00,0x1f,0x90,0x49,0x40,0x00,0x90,0x3a,0x38,0x00,0x90,0x3d,0x38,0x00,0x90,0x42,
0x46,0x83,0x5c,0x80,0x49,0x00,0x00,0x80,0x3a,0x00,0x00,0x80,0x3d,0x00,0x1e,0x80,
0x42,0x00,0x05,0x90,0x44,0x45,0x00,0x90,0x31,0x45,0x83,0x7f,0x80,0x44,0x00,0x00,
0x80,0x31,0x00,0x1f,0x90,0x49,0x40,0x00,0x90,0x3c,0x38,0x00,0x90,0x3f,0x38,0x00,
0x90,0x44,0x46,0x83,0x5d,0x80,0x49,0x00,0x00,0x80,0x3c,0x00,0x00,0x80,0x3f,0x00,
0x1e,0x80,0x44,0x00,0x01,0x90,0x4b,0x41,0x00,0x90,0x2c,0x41,0x83,0x5a,0x80,0x4b,
0x00,0x00,0x80,0x2c,0x00,0x1f,0x90,0x49,0x40,0x00,0x90,0x3c,0x38,0x00,0x90,0x3f,
0x38,0x00,0x90,0x44,0x46,0x81,0x68,0x80,0x49,0x00,0x10,0x90,0x4e,0x40,0x81,0x67,
0x80,0x3c,0x00,0x00,0x80,0x3f,0x00,0x1e,0x80,0x44,0x00,0x01,0x90,0x31,0x43,0x82,
0x06,0x80,0x4e,0x00,0x01,0x90,0x4e,0x40,0x81,0x58,0x80,0x31,0x00,0x0f,0x80,0x4e,
0x00,0x10,0x90,0x4d,0x40,0x00,0x90,0x3a,0x38,0x00,0x90,0x3d,0x38,0x00,0x90,0x42,
0x46,0x83,0x5a,0x80,0x4d,0x00,0x00,0x80,0x3a,0x00,0x00,0x80,0x3d,0x00,0x1e,0x80,
0x42,0x00,0x01,0x90,0x4b,0x41,0x00,0x90,0x2c,0x41,0x83,0x5a,0x80,0x4b,0x00,0x00,
0x80,0x2c,0x00,0x1f,0x90,0x49,0x40,0x00,0x90,0x3a,0x38,0x00,0x90,0x3d,0x38,0x00,
0x90,0x42,0x46,0x83,0x5c,0x80,0x49,0x00,0x00,0x80,0x3a,0x00,0x00,0x80,0x3d,0x00,
0x1e,0x80,0x42,0x00,0x05,0x90,0x44,0x45,0x00,0x90,0x31,0x45,0x83,0x7f,0x80,0x44,
0x00,0x00,0x80,0x31,0x00,0x1f,0x90,0x49,0x40,0x00,0x90,0x38,0x38,0x00,0x90,0x3d,
0x38,0x00,0x90,0x41,0x46,0x83,0x5d,0x80,0x49,0x00,0x00,0x80,0x38,0x00,0x00,0x80,
0x3d,0x00,0x1e,0x80,0x41,0x00,0x01,0x90,0x4b,0x41,0x00,0x90,0x2c,0x41,0x83,0x5a,
0x80,0x4b,0x00,0x00,0x80,0x2c,0x00,0x1f,0x90,0x49,0x40,0x00,0x90,0x38,0x38,0x00,
0x90,0x3d,0x38,0x00,0x90,0x41,0x46,0x81,0x68,0x80,0x49,0x00,0x10,0x90,0x44,0x40,
0x81,0x67,0x80,0x38,0x00,0x00,0x80,0x3d,0x00,0x1e,0x80,0x41,0x00,0x01,0x90,0x31,
0x43,0x82,0x06,0x80,0x44,0x00,0x01,0x90,0x44,0x40,0x81,0x58,0x80,0x31,0x00,0x0f,
0x80,0x44,0x00,0x10,0x90,0x49,0x40,0x00,0x90,0x3a,0x38,0x00,0x90,0x3d,0x38,0x00,
0x90,0x42,0x46,0x83,0x5a,0x80,0x49,0x00,0x00,0x80,0x3a,0x00,0x00,0x80,0x3d,0x00,
0x1e,0x80,0x42,0x00,0x01,0x90,0x4b,0x41,0x00,0x90,0x2c,0x41,0x83,0x5a,0x80,0x4b,
0x00,0x00,0x80,0x2c,0x00,0x1f,0x90,0x49,0x40,0x00,0x90,0x3a,0x38,0x00,0x90,0x3d,
0x38,0x00,0x90,0x42,0x46,0x83,0x5c,0x80,0x49,0x00,0x00,0x80,0x3a,0x00,0x00,0x80,
0x3d,0x00,0x1e,0x80,0x42,0x00,0x05,0x90,0x44,0x45,0x00,0x90,0x2f,0x45,0x83,0x7f,
0x80,0x44,0x00,0x00,0x80,0x2f,0x00,0x1f,0x90,0x42,0x40,0x00,0x90,0x3b,0x38,0x00,
0x90,0x3f,0x38,0x00,0x90,0x44,0x46,0x81,0x69,0x80,0x42,0x00,0x10,0x90,0x41,0x40,
0x81,0x64,0x80,0x3b,0x00,0x00,0x80,0x3f,0x00,0x0f,0x80,0x41,0x00,0x0f,0x80,0x44,
0x00,0x01,0x90,0x42,0x41,0x00,0x90,0x2a,0x41,0x83,0x5a,0x80,0x42,0x00,0x00,0x80,
0x2a,0x00,0x1f,0x90,0x49,0x40,0x00,0x90,0x3b,0x38,0x00,0x90,0x3f,0x38,0x00,0x90,
0x44,0x46,0x83,0x5f,0x80,0x3b,0x00,0x00,0x80,0x3f,0x00,0x1e,0x80,0x44,0x00,0x01,
0x90,0x2f,0x43,0x83,0x5f,0x80,0x2f,0x00,0x1f,0x90,0x3b,0x38,0x00,0x90,0x3d,0x38,
0x00,0x90,0x42,0x46,0x83,0x5a,0x80,0x3b,0x00,0x00,0x80,0x3d,0x00,0x1e,0x80,0x42,
0x00,0x01,0x90,0x2a,0x41,0x83,0x5a,0x80,0x2a,0x00,0x1f,0x90,0x3b,0x38,0x00,0x90,
0x3d,0x38,0x00,0x90,0x42,0x46,0x83,0x5c,0x80,0x3b,0x00,0x00,0x80,0x3d,0x00,0x1e,
0x80,0x49,0x00,0x00,0x80,0x42,0x00,0x05,0x90,0x4d,0x45,0x00,0x90,0x31,0x45,0x83,
0x7f,0x80,0x31,0x00,0x1f,0x90,0x38,0x38,0x00,0x90,0x3d,0x38,0x00,0x90,0x41,0x46,
0x83,0x5d,0x80,0x38,0x00,0x00,0x80,0x3d,0x00,0x1e,0x80,0x4d,0x00,0x00,0x80,0x41,
0x00,0x01,0x90,0x49,0x41,0x00,0x90,0x2c,0x41,0x83,0x5a,0x80,0x2c,0x00,0x1f,0x90,
0x38,0x38,0x00,0x90,0x3d,0x38,0x00,0x90,0x41,0x46,0x81,0x77,0x80,0x49,0x00,0x01,
0x90,0x49,0x40,0x81,0x67,0x80,0x38,0x00,0x00,0x80,0x3d,0x00,0x0f,0x80,0x49,0x00,
0x0f,0x80,0x41,0x00,0x01,0x90,0x4e,0x43,0x00,0x90,0x31,0x43,0x81,0x77,0x80,0x4e,
0x00,0x10,0x90,0x4d,0x40,0x81,0x58,0x80,0x31,0x00,0x1f,0x90,0x3a,0x38,0x00,0x90,
0x3d,0x38,0x00,0x90,0x42,0x46,0x81,0x59,0x80,0x4d,0x00,0x1f,0x90,0x49,0x34,0x81,
0x62,0x80,0x3a,0x00,0x00,0x80,0x3d,0x00,0x1e,0x80,0x42,0x00,0x01,0x90,0x2c,0x41,
0x82,0x00,0x80,0x49,0x00,0x01,0x90,0x49,0x34,0x81,0x59,0x80,0x2c,0x00,0x1f,0x90,
0x4b,0x40,0x00,0x90,0x3a,0x38,0x00,0x90,0x3d,0x38,0x00,0x90,0x42,0x46,0x0e,0x80,
0x49,0x00,0x83,0x4e,0x80,0x4b,0x00,0x00,0x80,0x3a,0x00,0x00,0x80,0x3d,0x00,0x1e,
0x80,0x42,0x00,0x05,0x90,0x44,0x45,0x00,0x90,0x31,0x45,0x83,0x7f,0x80,0x44,0x00,
0x00,0x80,0x31,0x00,0x1f,0x90,0x46,0x40,0x00,0x90,0x3c,0x38,0x00,0x90,0x3f,0x38,
0x00,0x90,0x44,0x46,0x83,0x5d,0x80,0x46,0x00,0x00,0x80,0x3c,0x00,0x00,0x80,0x3f,
0x00,0x1e,0x80,0x44,0x00,0x01,0x90,0x44,0x41,0x00,0x90,0x2c,0x41,0x81,0x72,0x80,
0x44,0x00,0x10,0x90,0x46,0x40,0x81,0x58,0x80,0x2c,0x00,0x1f,0x90,0x3c,0x38,0x00,
0x90,0x3f,0x38,0x00,0x90,0x44,0x46,0x81,0x59,0x80,0x46,0x00,0x1f,0x90,0x44,0x40,
0x81,0x67,0x80,0x3c,0x00,0x00,0x80,0x3f,0x00,0x1e,0x80,0x44,0x00,0x01,0x90,0x31,
0x43,0x83,0x5f,0x80,0x31,0x00,0x1f,0x90,0x3a,0x38,0x00,0x90,0x3d,0x38,0x00,0x90,
0x42,0x46,0x83,0x5a,0x80,0x3a,0x00,0x00,0x80,0x3d,0x00,0x1e,0x80,0x42,0x00,0x01,
0x90,0x2c,0x41,0x83,0x5a,0x80,0x2c,0x00,0x1f,0x90,0x38,0x38,0x00,0x90,0x3d,0x38,
0x00,0x90,0x41,0x46,0x83,0x5c,0x80,0x38,0x00,0x00,0x80,0x3d,0x00,0x1e,0x80,0x44,
0x00,0x00,0x80,0x41,0x00,0x05,0x90,0x46,0x45,0x00,0x90,0x2a,0x45,0x83,0x7f,0x80,
0x46,0x00,0x00,0x80,0x2a,0x00,0x1f,0x90,0x49,0x40,0x00,0x90,0x3a,0x38,0x00,0x90,
0x3d,0x38,0x00,0x90,0x41,0x46,0x83,0x5d,0x80,0x49,0x00,0x00,0x80,0x3a,0x00,0x00,
0x80,0x3d,0x00,0x1e,0x80,0x41,0x00,0x01,0x90,0x4e,0x41,0x00,0x90,0x31,0x41,0x81,
0x72,0x80,0x4e,0x00,0x10,0x90,0x4d,0x40,0x81,0x58,0x80,0x31,0x00,0x1f,0x90,0x3a,
0x38,0x00,0x90,0x3d,0x38,0x00,0x90,0x41,0x46,0x81,0x59,0x80,0x4d,0x00,0x1f,0x90,
0x49,0x40,0x81,0x67,0x80,0x3a,0x00,0x00,0x80,0x3d,0x00,0x1e,0x80,0x41,0x00,0x01,
0x90,0x2a,0x43,0x83,0x5f,0x80,0x2a,0x00,0x1f,0x90,0x3a,0x38,0x00,0x90,0x3d,0x38,
0x00,0x90,0x42,0x46,0x83,0x5a,0x80,0x3a,0x00,0x00,0x80,0x3d,0x00,0x1e,0x80,0x42,
0x00,0x01,0x90,0x31,0x41,0x83,0x5a,0x80,0x31,0x00,0x1e,0x80,0x49,0x00,0x01,0x90,
0x44,0x40,0x00,0x90,0x3a,0x38,0x00,0x90,0x3d,0x38,0x00,0x90,0x42,0x46,0x83,0x5c,
0x80,0x44,0x00,0x00,0x80,0x3a,0x00,0x1e,0x80,0x3d,0x00,0x00,0x80,0x42,0x00,0x05,
0x90,0x46,0x45,0x00,0x90,0x2f,0x45,0x83,0x7f,0x80,0x46,0x00,0x00,0x80,0x2f,0x00,
0x1f,0x90,0x49,0x40,0x00,0x90,0x3d,0x38,0x00,0x90,0x42,0x38,0x00,0x90,0x46,0x46,
0x83,0x5d,0x80,0x49,0x00,0x00,0x80,0x3d,0x00,0x00,0x80,0x42,0x00,0x1e,0x80,0x46,
0x00,0x01,0x90,0x4e,0x41,0x00,0x90,0x36,0x41,0x81,0x72,0x80,0x4e,0x00,0x10,0x90,
0x4d,0x40,0x81,0x58,0x80,0x36,0x00,0x1f,0x90,0x3d,0x38,0x00,0x90,0x42,0x38,0x00,
0x90,0x46,0x46,0x81,0x59,0x80,0x4d,0x00,0x1f,0x90,0x49,0x40,0x81,0x67,0x80,0x3d,
0x00,0x00,0x80,0x42,0x00,0x1e,0x80,0x46,0x00,0x01,0x90,0x2c,0x43,0x83,0x5f,0x80,
0x2c,0x00,0x1f,0x90,0x3c,0x38,0x00,0x90,0x3f,0x38,0x00,0x90,0x44,0x46,0x83,0x5a,
0x80,0x3c,0x00,0x00,0x80,0x3f,0x00,0x1e,0x80,0x49,0x00,0x00,0x80,0x44,0x00,0x01,
0x90,0x4b,0x41,0x00,0x90,0x38,0x41,0x83,0x5a,0x80,0x38,0x00,0x1f,0x90,0x3c,0x38,
0x00,0x90,0x3f,0x38,0x00,0x90,0x44,0x46,0x83,0x5c,0x80,0x3c,0x00,0x00,0x80,0x3f,
0x00,0x1e,0x80,0x4b,0x00,0x00,0x80,0x44,0x00,0x05,0x90,0x41,0x45,0x00,0x90,0x31,
0x45,0x83,0x7f,0x80,0x41,0x00,0x00,0x80,0x31,0x00,0x1f,0x90,0x44,0x40,0x00,0x90,
0x38,0x38,0x00,0x90,0x3d,0x38,0x00,0x90,0x41,0x46,0x83,0x5d,0x80,0x44,0x00,0x00,
0x80,0x38,0x00,0x00,0x80,0x3d,0x00,0x1e,0x80,0x41,0x00,0x01,0x90,0x46,0x41,0x00,
0x90,0x2c,0x41,0x83,0x5a,0x80,0x46,0x00,0x00,0x80,0x2c,0x00,0x1f,0x90,0x44,0x40,
0x00,0x90,0x38,0x38,0x00,0x90,0x3d,0x38,0x00,0x90,0x41,0x46,0x81,0x68,0x80,0x44,
0x00,0x10,0x90,0x41,0x40,0x81,0x67,0x80,0x38,0x00,0x00,0x80,0x3d,0x00,0x1e,0x80,
0x41,0x00,0x01,0x90,0x31,0x43,0x82,0x06,0x80,0x41,0x00,0x01,0x90,0x41,0x40,0x81,
0x58,0x80,0x31,0x00,0x0f,0x80,0x41,0x00,0x10,0x90,0x44,0x40,0x00,0x90,0x3a,0x38,
0x00,0x90,0x3d,0x38,0x00,0x90,0x42,0x46,0x83,0x5a,0x80,0x44,0x00,0x00,0x80,0x3a,
0x00,0x00,0x80,0x3d,0x00,0x1e,0x80,0x42,0x00,0x01,0x90,0x46,0x41,0x00,0x90,0x2c,
0x41,0x83,0x5a,0x80,0x46,0x00,0x00,0x80,0x2c,0x00,0x1f,0x90,0x44,0x40,0x00,0x90,
0x3a,0x38,0x00,0x90,0x3d,0x38,0x00,0x90,0x42,0x46,0x83,0x5c,0x80,0x44,0x00,0x00,
0x80,0x3a,0x00,0x00,0x80,0x3d,0x00,0x1e,0x80,0x42,0x00,0x05,0x90,0x41,0x45,0x00,
0x90,0x31,0x45,0x83,0x7f,0x80,0x41,0x00,0x00,0x80,0x31,0x00,0x1f,0x90,0x44,0x40,
0x00,0x90,0x3c,0x38,0x00,0x90,0x3f,0x38,0x00,0x90,0x44,0x46,0x83,0x5d,0x80,0x44,
0x00,0x00,0x80,0x3c,0x00,0x00,0x80,0x3f,0x00,0x1e,0x80,0x44,0x00,0x01,0x90,0x46,
0x41,0x00,0x90,0x2c,0x41,0x83,0x5a,0x80,0x46,0x00,0x00,0x80,0x2c,0x00,0x1f,0x90,
0x44,0x40,0x00,0x90,0x3c,0x38,0x00,0x90,0x3f,0x38,0x00,0x90,0x44,0x46,0x81,0x68,
0x80,0x44,0x00,0x10,0x90,0x49,0x40,0x81,0x67,0x80,0x3c,0x00,0x00,0x80,0x3f,0x00,
0x1e,0x80,0x44,0x00,0x01,0x90,0x31,0x43,0x82,0x06,0x80,0x49,0x00,0x01,0x90,0x49,
0x40,0x81,0x58,0x80,0x31,0x00,0x0f,0x80,0x49,0x00,0x10,0x90,0x48,0x40,0x00,0x90,
0x3a,0x38,0x00,0x90,0x3d,0x38,0x00,0x90,0x42,0x46,0x83,0x5a,0x80,0x48,0x00,0x00,
0x80,0x3a,0x00,0x00,0x80,0x3d,0x00,0x1e,0x80,0x42,0x00,0x01,0x90,0x46,0x41,0x00,
0x90,0x2c,0x41,0x83,0x5a,0x80,0x46,0x00,0x00,0x80,0x2c,0x00,0x1f,0x90,0x44,0x40,
0x00,0x90,0x3a,0x38,0x00,0x90,0x3d,0x38,0x00,0x90,0x42,0x46,0x83,0x5c,0x80,0x3a,
0x00,0x00,0x80,0x3d,0x00,0x1e,0x80,0x44,0x00,0x00,0x80,0x42,0x00,0x05,0x90,0x44,
0x45,0x00,0x90,0x31,0x45,0x83,0x7f,0x80,0x44,0x00,0x00,0x80,0x31,0x00,0x1f,0x90,
0x49,0x40,0x00,0x90,0x38,0x38,0x00,0x90,0x3d,0x38,0x00,0x90,0x41,0x46,0x83,0x5d,
0x80,0x49,0x00,0x00,0x80,0x38,0x00,0x00,0x80,0x3d,0x00,0x1e,0x80,0x41,0x00,0x01,
0x90,0x4b,0x41,0x00,0x90,0x2c,0x41,0x83,0x5a,0x80,0x4b,0x00,0x00,0x80,0x2c,0x00,
0x1f,0x90,0x49,0x40,0x00,0x90,0x38,0x38,0x00,0x90,0x3d,0x38,0x00,0x90,0x41,0x46,
0x81,0x68,0x80,0x49,0x00,0x10,0x90,0x44,0x40,0x81,0x67,0x80,0x38,0x00,0x00,0x80,
0x3d,0x00,0x1e,0x80,0x41,0x00,0x01,0x90,0x31,0x43,0x82,0x06,0x80,0x44,0x00,0x01,
0x90,0x44,0x40,0x81,0x58,0x80,0x31,0x00,0x0f,0x80,0x44,0x00,0x10,0x90,0x49,0x40,
0x00,0x90,0x3a,0x38,0x00,0x90,0x3d,0x38,0x00,0x90,0x42,0x46,0x83,0x5a,0x80,0x49,
0x00,0x00,0x80,0x3a,0x00,0x00,0x80,0x3d,0x00,0x1e,0x80,0x42,0x00,0x01,0x90,0x4b,
0x41,0x00,0x90,0x2c,0x41,0x83,0x5a,0x80,0x4b,0x00,0x00,0x80,0x2c,0x00,0x1f,0x90,
0x49,0x40,0x00,0x90,0x3a,0x38,0x00,0x90,0x3d,0x38,0x00,0x90,0x42,0x46,0x83,0x5c,
0x80,0x49,0x00,0x00,0x80,0x3a,0x00,0x1e,0x80,0x3d,0x00,0x00,0x80,0x42,0x00,0x05,
0x90,0x44,0x45,0x00,0x90,0x31,0x45,0x83,0x7f,0x80,0x44,0x00,0x00,0x80,0x31,0x00,
0x1f,0x90,0x49,0x40,0x00,0x90,0x3d,0x38,0x00,0x90,0x41,0x38,0x00,0x90,0x44,0x46,
0x83,0x5d,0x80,0x49,0x00,0x00,0x80,0x3d,0x00,0x00,0x80,0x41,0x00,0x1e,0x80,0x44,
0x00,0x01,0x90,0x4b,0x41,0x00,0x90,0x2c,0x41,0x83,0x5a,0x80,0x4b,0x00,0x00,0x80,
0x2c,0x00,0x1f,0x90,0x49,0x40,0x00,0x90,0x3d,0x38,0x00,0x90,0x41,0x38,0x00,0x90,
0x44,0x46,0x81,0x68,0x80,0x49,0x00,0x10,0x90,0x4e,0x40,0x81,0x67,0x80,0x3d,0x00,
0x00,0x80,0x41,0x00,0x1e,0x80,0x44,0x00,0x01,0x90,0x31,0x43,0x83,0x5f,0x80,0x4e,
0x00,0x00,0x80,0x31,0x00,0x1f,0x90,0x4d,0x40,0x00,0x90,0x3d,0x38,0x00,0x90,0x41,
0x38,0x00,0x90,0x44,0x46,0x83,0x5a,0x80,0x4d,0x00,0x00,0x80,0x3d,0x00,0x00,0x80,
0x41,0x00,0x1e,0x80,0x44,0x00,0x01,0x90,0x4b,0x41,0x00,0x90,0x2c,0x41,0x83,0x5a,
0x80,0x4b,0x00,0x00,0x80,0x2c,0x00,0x1f,0x90,0x49,0x40,0x00,0x90,0x3d,0x38,0x00,
0x90,0x41,0x38,0x00,0x90,0x44,0x46,0x83,0x5c,0x80,0x49,0x00,0x00,0x80,0x3d,0x00,
0x00,0x80,0x41,0x00,0x1e,0x80,0x44,0x00,0x05,0x90,0x50,0x45,0x00,0x90,0x2a,0x45,
0x83,0x7f,0x80,0x50,0x00,0x00,0x80,0x2a,0x00,0x1f,0x90,0x52,0x40,0x00,0x90,0x38,
0x38,0x00,0x90,0x3d,0x38,0x00,0x90,0x41,0x46,0x83,0x5d,0x80,0x52,0x00,0x00,0x80,
0x38,0x00,0x00,0x80,0x3d,0x00,0x1e,0x80,0x41,0x00,0x01,0x90,0x50,0x41,0x00,0x90,
0x31,0x41,0x81,0x72,0x80,0x50,0x00,0x10,0x90,0x4d,0x40,0x81,0x58,0x80,0x31,0x00,
0x1f,0x90,0x38,0x38,0x00,0x90,0x3d,0x38,0x00,0x90,0x41,0x46,0x81,0x59,0x80,0x4d,
0x00,0x1f,0x90,0x49,0x40,0x81,0x67,0x80,0x38,0x00,0x00,0x80,0x3d,0x00,0x1e,0x80,
0x41,0x00,0x01,0x90,0x2a,0x43,0x83,0x5f,0x80,0x2a,0x00,0x1f,0x90,0x38,0x38,0x00,
0x90,0x3d,0x38,0x00,0x90,0x41,0x46,0x83,0x5a,0x80,0x38,0x00,0x00,0x80,0x3d,0x00,
0x1e,0x80,0x41,0x00,0x01,0x90,0x31,0x41,0x83,0x5a,0x80,0x31,0x00,0x1e,0x80,0x49,
0x00,0x01,0x90,0x4b,0x34,0x00,0x90,0x38,0x38,0x00,0x90,0x3d,0x38,0x00,0x90,0x41,
0x46,0x83,0x5c,0x80,0x38,0x00,0x00,0x80,0x3d,0x00,0x1e,0x80,0x4b,0x00,0x00,0x80,
0x41,0x00,0x05,0x90,0x4b,0x39,0x00,0x90,0x2a,0x45,0x83,0x7f,0x80,0x2a,0x00,0x1f,
0x90,0x49,0x40,0x00,0x90,0x3c,0x38,0x00,0x90,0x3f,0x38,0x00,0x90,0x44,0x46,0x1e,
0x80,0x4b,0x00,0x81,0x4b,0x80,0x49,0x00,0x10,0x90,0x48,0x40,0x81,0x64,0x80,0x3c,
0x00,0x00,0x80,0x3f,0x00,0x0f,0x80,0x48,0x00,0x0f,0x80,0x44,0x00,0x01,0x90,0x49,
0x41,0x00,0x90,0x31,0x41,0x83,0x5a,0x80,0x49,0x00,0x00,0x80,0x31,0x00,0x1f,0x90,
0x50,0x40,0x00,0x90,0x3c,0x38,0x00,0x90,0x3f,0x38,0x00,0x90,0x44,0x46,0x83,0x5f,
0x80,0x3c,0x00,0x00,0x80,0x3f,0x00,0x1e,0x80,0x44,0x00,0x01,0x90,0x2a,0x43,0x83,
0x5f,0x80,0x2a,0x00,0x1f,0x90,0x3a,0x38,0x00,0x90,0x3d,0x38,0x00,0x90,0x42,0x46,
0x83,0x5a,0x80,0x3a,0x00,0x00,0x80,0x3d,0x00,0x1e,0x80,0x42,0x00,0x01,0x90,0x31,
0x41,0x83,0x5a,0x80,0x31,0x00,0x1e,0x80,0x50,0x00,0x01,0x90,0x50,0x40,0x00,0x90,
0x3a,0x38,0x00,0x90,0x3d,0x38,0x00,0x90,0x42,0x46,0x83,0x5c,0x80,0x3a,0x00,0x00,
0x80,0x3d,0x00,0x1e,0x80,0x50,0x00,0x00,0x80,0x42,0x00,0x05,0x90,0x50,0x45,0x00,
0x90,0x2f,0x45,0x83,0x7f,0x80,0x50,0x00,0x00,0x80,0x2f,0x00,0x1f,0x90,0x52,0x40,
0x00,0x90,0x38,0x38,0x00,0x90,0x3d,0x38,0x00,0x90,0x41,0x46,0x83,0x5d,0x80,0x52,
0x00,0x00,0x80,0x38,0x00,0x00,0x80,0x3d,0x00,0x1e,0x80,0x41,0x00,0x01,0x90,0x50,
0x41,0x00,0x90,0x36,0x41,0x81,0x72,0x80,0x50,0x00,0x10,0x90,0x4d,0x40,0x81,0x58,
0x80,0x36,0x00,0x1f,0x90,0x38,0x38,0x00,0x90,0x3d,0x38,0x00,0x90,0x41,0x46,0x81,
0x59,0x80,0x4d,0x00,0x1f,0x90,0x49,0x40,0x81,0x67,0x80,0x38,0x00,0x00,0x80,0x3d,
0x00,0x1e,0x80,0x41,0x00,0x01,0x90,0x2f,0x43,0x83,0x5f,0x80,0x2f,0x00,0x1f,0x90,
0x38,0x38,0x00,0x90,0x3d,0x38,0x00,0x90,0x41,0x46,0x83,0x5a,0x80,0x38,0x00,0x00,
0x80,0x3d,0x00,0x1e,0x80,0x41,0x00,0x01,0x90,0x36,0x41,0x83,0x5a,0x80,0x36,0x00,
0x1e,0x80,0x49,0x00,0x01,0x90,0x4b,0x34,0x00,0x90,0x38,0x38,0x00,0x90,0x3d,0x38,
0x00,0x90,0x41,0x46,0x83,0x5c,0x80,0x38,0x00,0x00,0x80,0x3d,0x00,0x1e,0x80,0x4b,
0x00,0x00,0x80,0x41,0x00,0x05,0x90,0x4b,0x39,0x00,0x90,0x2f,0x45,0x83,0x7f,0x80,
0x2f,0x00,0x1f,0x90,0x49,0x40,0x00,0x90,0x3a,0x38,0x00,0x90,0x3d,0x38,0x00,0x90,
0x42,0x46,0x1e,0x80,0x4b,0x00,0x81,0x4b,0x80,0x49,0x00,0x10,0x90,0x48,0x40,0x81,
0x64,0x80,0x3a,0x00,0x00,0x80,0x3d,0x00,0x0f,0x80,0x48,0x00,0x0f,0x80,0x42,0x00,
0x01,0x90,0x49,0x41,0x00,0x90,0x36,0x41,0x83,0x5a,0x80,0x49,0x00,0x00,0x80,0x36,
0x00,0x1f,0x90,0x50,0x40,0x00,0x90,0x3a,0x38,0x00,0x90,0x3d,0x38,0x00,0x90,0x42,
0x46,0x83,0x5f,0x80,0x3a,0x00,0x00,0x80,0x3d,0x00,0x1e,0x80,0x42,0x00,0x01,0x90,
0x33,0x43,0x83,0x5f,0x80,0x33,0x00,0x1f,0x90,0x3c,0x38,0x00,0x90,0x3f,0x38,0x00,
0x90,0x44,0x46,0x83,0x5a,0x80,0x3c,0x00,0x00,0x80,0x3f,0x00,0x1e,0x80,0x44,0x00,
0x01,0x90,0x2c,0x41,0x83,0x5a,0x80,0x2c,0x00,0x1e,0x80,0x50,0x00,0x01,0x90,0x50,
0x40,0x00,0x90,0x3c,0x38,0x00,0x90,0x3f,0x38,0x00,0x90,0x44,0x46,0x83,0x5c,0x80,
0x50,0x00,0x00,0x80,0x3c,0x00,0x00,0x80,0x3f,0x00,0x1e,0x80,0x44,0x00,0x05,0x90,
0x38,0x45,0x82,0x15,0x80,0x38,0x00,0x10,0x90,0x3d,0x40,0x81,0x69,0x80,0x3d,0x00,
0x10,0x90,0x4d,0x40,0x00,0x90,0x41,0x40,0x81,0x69,0x80,0x41,0x00,0x10,0x90,0x38,
0x40,0x81,0x64,0x80,0x4d,0x00,0x0f,0x80,0x38,0x00,0x10,0x90,0x4e,0x41,0x82,0x02,
0x90,0x38,0x38,0x00,0x90,0x3d,0x38,0x00,0x90,0x41,0x42,0x81,0x58,0x80,0x4e,0x00,
0x1e,0x80,0x38,0x00,0x00,0x80,0x3d,0x00,0x00,0x80,0x41,0x00,0x01,0x90,0x50,0x40,
0x00,0x90,0x38,0x38,0x00,0x90,0x3d,0x38,0x00,0x90,0x41,0x42,0x83,0x5f,0x80,0x50,
0x00,0x00,0x80,0x38,0x00,0x1e,0x80,0x3d,0x00,0x00,0x80,0x41,0x00,0x01,0x90,0x55,
0x43,0x00,0x90,0x3a,0x43,0x81,0x77,0x80,0x3a,0x00,0x10,0x90,0x3d,0x40,0x81,0x67,
0x80,0x3d,0x00,0x10,0x90,0x42,0x40,0x81,0x68,0x80,0x42,0x00,0x0f,0x80,0x55,0x00,
0x01,0x90,0x55,0x40,0x00,0x90,0x3a,0x40,0x81,0x71,0x80,0x3a,0x00,0x82,0x11,0x90,
0x3a,0x38,0x00,0x90,0x3d,0x38,0x00,0x90,0x42,0x42,0x81,0x59,0x80,0x55,0x00,0x1e,
0x80,0x3a,0x00,0x00,0x80,0x3d,0x00,0x00,0x80,0x42,0x00,0x01,0x90,0x57,0x40,0x00,
0x90,0x3a,0x38,0x00,0x90,0x3d,0x38,0x00,0x90,0x42,0x42,0x83,0x5c,0x80,0x3a,0x00,
0x00,0x80,0x3d,0x00,0x1e,0x80,0x42,0x00,0x05,0x90,0x3c,0x45,0x82,0x15,0x80,0x3c,
0x00,0x10,0x90,0x3f,0x40,0x81,0x5a,0x80,0x57,0x00,0x0f,0x80,0x3f,0x00,0x10,0x90,
0x54,0x40,0x00,0x90,0x44,0x40,0x81,0x69,0x80,0x44,0x00,0x10,0x90,0x3c,0x40,0x81,
0x73,0x80,0x3c,0x00,0x82,0x12,0x90,0x3c,0x38,0x00,0x90,0x3f,0x38,0x00,0x90,0x44,
0x42,0x81,0x76,0x80,0x54,0x00,0x00,0x80,0x3c,0x00,0x00,0x80,0x3f,0x00,0x00,0x80,
0x44,0x00,0x01,0x90,0x50,0x40,0x00,0x90,0x3c,0x38,0x00,0x90,0x3f,0x38,0x00,0x90,
0x44,0x42,0x83,0x5f,0x80,0x3c,0x00,0x00,0x80,0x3f,0x00,0x1e,0x80,0x44,0x00,0x01,
0x90,0x3a,0x43,0x81,0x77,0x80,0x3a,0x00,0x10,0x90,0x3d,0x40,0x81,0x67,0x80,0x3d,
0x00,0x10,0x90,0x42,0x40,0x81,0x68,0x80,0x42,0x00,0x10,0x90,0x3a,0x40,0x81,0x71,
0x80,0x3a,0x00,0x82,0x11,0x90,0x3a,0x38,0x00,0x90,0x3d,0x38,0x00,0x90,0x42,0x42,
0x81,0x77,0x80,0x3a,0x00,0x00,0x80,0x3d,0x00,0x00,0x80,0x42,0x00,0x01,0x90,0x3a,
0x38,0x00,0x90,0x3d,0x38,0x00,0x90,0x42,0x42,0x83,0x5c,0x80,0x3a,0x00,0x1e,0x80,
0x50,0x00,0x00,0x80,0x3d,0x00,0x00,0x80,0x42,0x00,0x05,0x90,0x50,0x45,0x00,0x90,
0x38,0x45,0x82,0x15,0x80,0x38,0x00,0x10,0x90,0x3d,0x40,0x81,0x5a,0x80,0x50,0x00,
0x0f,0x80,0x3d,0x00,0x10,0x90,0x4e,0x40,0x00,0x90,0x41,0x40,0x81,0x69,0x80,0x41,
0x00,0x10,0x90,0x38,0x40,0x81,0x64,0x80,0x4e,0x00,0x0f,0x80,0x38,0x00,0x10,0x90,
0x4d,0x41,0x81,0x72,0x80,0x4d,0x00,0x10,0x90,0x4b,0x40,0x00,0x90,0x38,0x38,0x00,
0x90,0x3d,0x38,0x00,0x90,0x41,0x42,0x81,0x76,0x80,0x38,0x00,0x00,0x80,0x3d,0x00,
0x00,0x80,0x41,0x00,0x01,0x90,0x38,0x38,0x00,0x90,0x3d,0x38,0x00,0x90,0x41,0x42,
0x81,0x59,0x80,0x4b,0x00,0x1f,0x90,0x49,0x40,0x81,0x67,0x80,0x38,0x00,0x1e,0x80,
0x3d,0x00,0x00,0x80,0x41,0x00,0x01,0x90,0x3a,0x43,0x81,0x77,0x80,0x3a,0x00,0x10,
0x90,0x3d,0x40,0x81,0x67,0x80,0x3d,0x00,0x10,0x90,0x42,0x40,0x81,0x68,0x80,0x42,
0x00,0x10,0x90,0x3a,0x40,0x81,0x71,0x80,0x3a,0x00,0x82,0x11,0x90,0x3a,0x38,0x00,
0x90,0x3d,0x38,0x00,0x90,0x42,0x42,0x81,0x77,0x80,0x3a,0x00,0x00,0x80,0x3d,0x00,
0x00,0x80,0x42,0x00,0x01,0x90,0x3a,0x38,0x00,0x90,0x3d,0x38,0x00,0x90,0x42,0x42,
0x83,0x5c,0x80,0x3a,0x00,0x00,0x80,0x3d,0x00,0x1e,0x80,0x49,0x00,0x00,0x80,0x42,
0x00,0x05,0x90,0x3c,0x45,0x82,0x15,0x80,0x3c,0x00,0x10,0x90,0x3f,0x40,0x81,0x69,
0x80,0x3f,0x00,0x10,0x90,0x44,0x40,0x81,0x69,0x80,0x44,0x00,0x10,0x90,0x3c,0x40,
0x81,0x73,0x80,0x3c,0x00,0x82,0x12,0x90,0x3c,0x38,0x00,0x90,0x3f,0x38,0x00,0x90,
0x44,0x42,0x81,0x76,0x80,0x3c,0x00,0x00,0x80,0x3f,0x00,0x00,0x80,0x44,0x00,0x01,
0x90,0x3c,0x38,0x00,0x90,0x3f,0x38,0x00,0x90,0x44,0x42,0x83,0x5f,0x80,0x3c,0x00,
0x00,0x80,0x3f,0x00,0x1e,0x80,0x44,0x00,0x01,0x90,0x3a,0x43,0x81,0x77,0x80,0x3a,
0x00,0x10,0x90,0x3d,0x40,0x81,0x67,0x80,0x3d,0x00,0x10,0x90,0x42,0x40,0x81,0x68,
0x80,0x42,0x00,0x10,0x90,0x3a,0x40,0x81,0x71,0x80,0x3a,0x00,0x82,0x11,0x90,0x3a,
0x38,0x00,0x90,0x3d,0x38,0x00,0x90,0x42,0x42,0x81,0x77,0x80,0x3a,0x00,0x00,0x80,
0x3d,0x00,0x00,0x80,0x42,0x00,0x01,0x90,0x3a,0x38,0x00,0x90,0x3d,0x38,0x00,0x90,
0x42,0x42,0x83,0x5c,0x80,0x3a,0x00,0x1e,0x80,0x3d,0x00,0x00,0x80,0x42,0x00,0x05,
0x90,0x38,0x45,0x82,0x15,0x80,0x38,0x00,0x10,0x90,0x3d,0x40,0x81,0x69,0x80,0x3d,
0x00,0x10,0x90,0x4d,0x40,0x00,0x90,0x41,0x40,0x81,0x69,0x80,0x41,0x00,0x10,0x90,
0x38,0x40,0x81,0x64,0x80,0x4d,0x00,0x0f,0x80,0x38,0x00,0x10,0x90,0x4e,0x41,0x82,
0x02,0x90,0x38,0x38,0x00,0x90,0x3d,0x38,0x00,0x90,0x41,0x42,0x81,0x58,0x80,0x4e,
0x00,0x1e,0x80,0x38,0x00,0x00,0x80,0x3d,0x00,0x00,0x80,0x41,0x00,0x01,0x90,0x50,
0x40,0x00,0x90,0x38,0x38,0x00,0x90,0x3d,0x38,0x00,0x90,0x41,0x42,0x83,0x5f,0x80,
0x50,0x00,0x00,0x80,0x38,0x00,0x1e,0x80,0x3d,0x00,0x00,0x80,0x41,0x00,0x01,0x90,
0x55,0x43,0x00,0x90,0x3a,0x43,0x81,0x77,0x80,0x3a,0x00,0x10,0x90,0x3d,0x40,0x81,
0x67,0x80,0x3d,0x00,0x10,0x90,0x42,0x40,0x81,0x68,0x80,0x42,0x00,0x0f,0x80,0x55,
0x00,0x01,0x90,0x55,0x40,0x00,0x90,0x3a,0x40,0x81,0x71,0x80,0x3a,0x00,0x82,0x11,
0x90,0x3a,0x38,0x00,0x90,0x3d,0x38,0x00,0x90,0x42,0x42,0x81,0x59,0x80,0x55,0x00,
0x1e,0x80,0x3a,0x00,0x00,0x80,0x3d,0x00,0x00,0x80,0x42,0x00,0x01,0x90,0x57,0x40,
0x00,0x90,0x3a,0x38,0x00,0x90,0x3d,0x38,0x00,0x90,0x42,0x42,0x83,0x5c,0x80,0x3a,
0x00,0x00,0x80,0x3d,0x00,0x1e,0x80,0x42,0x00,0x05,0x90,0x3c,0x45,0x82,0x15,0x80,
0x3c,0x00,0x10,0x90,0x3f,0x40,0x81,0x5a,0x80,0x57,0x00,0x0f,0x80,0x3f,0x00,0x10,
0x90,0x54,0x40,0x00,0x90,0x44,0x40,0x81,0x69,0x80,0x44,0x00,0x10,0x90,0x3c,0x40,
0x81,0x73,0x80,0x3c,0x00,0x82,0x12,0x90,0x3c,0x38,0x00,0x90,0x3f,0x38,0x00,0x90,
0x44,0x42,0x81,0x76,0x80,0x54,0x00,0x00,0x80,0x3c,0x00,0x00,0x80,0x3f,0x00,0x00,
0x80,0x44,0x00,0x01,0x90,0x50,0x40,0x00,0x90,0x3c,0x38,0x00,0x90,0x3f,0x38,0x00,
0x90,0x44,0x42,0x83,0x5f,0x80,0x3c,0x00,0x00,0x80,0x3f,0x00,0x1e,0x80,0x44,0x00,
0x01,0x90,0x3a,0x43,0x81,0x77,0x80,0x3a,0x00,0x10,0x90,0x3d,0x40,0x81,0x67,0x80,
0x3d,0x00,0x10,0x90,0x42,0x40,0x81,0x68,0x80,0x42,0x00,0x10,0x90,0x3a,0x40,0x81,
0x71,0x80,0x3a,0x00,0x82,0x11,0x90,0x3a,0x38,0x00,0x90,0x3d,0x38,0x00,0x90,0x42,
0x42,0x81,0x77,0x80,0x3a,0x00,0x00,0x80,0x3d,0x00,0x00,0x80,0x42,0x00,0x01,0x90,
0x3a,0x38,0x00,0x90,0x3d,0x38,0x00,0x90,0x42,0x42,0x83,0x5c,0x80,0x3a,0x00,0x1e,
0x80,0x50,0x00,0x00,0x80,0x3d,0x00,0x00,0x80,0x42,0x00,0x05,0x90,0x50,0x45,0x00,
0x90,0x38,0x45,0x82,0x15,0x80,0x38,0x00,0x10,0x90,0x3d,0x40,0x81,0x5a,0x80,0x50,
0x00,0x0f,0x80,0x3d,0x00,0x10,0x90,0x4e,0x40,0x00,0x90,0x41,0x40,0x81,0x69,0x80,
0x41,0x00,0x10,0x90,0x38,0x40,0x81,0x64,0x80,0x4e,0x00,0x0f,0x80,0x38,0x00,0x10,
0x90,0x4d,0x41,0x81,0x72,0x80,0x4d,0x00,0x10,0x90,0x4b,0x40,0x00,0x90,0x38,0x38,
0x00,0x90,0x3d,0x38,0x00,0x90,0x41,0x42,0x81,0x76,0x80,0x38,0x00,0x00,0x80,0x3d,
0x00,0x00,0x80,0x41,0x00,0x01,0x90,0x38,0x38,0x00,0x90,0x3d,0x38,0x00,0x90,0x41,
0x42,0x81,0x59,0x80,0x4b,0x00,0x1f,0x90,0x49,0x40,0x81,0x67,0x80,0x38,0x00,0x1e,
0x80,0x3d,0x00,0x00,0x80,0x41,0x00,0x01,0x90,0x3a,0x43,0x81,0x77,0x80,0x3a,0x00,
0x10,0x90,0x3d,0x40,0x81,0x67,0x80,0x3d,0x00,0x10,0x90,0x42,0x40,0x81,0x68,0x80,
0x42,0x00,0x10,0x90,0x3a,0x40,0x81,0x71,0x80,0x3a,0x00,0x82,0x11,0x90,0x3a,0x38,
0x00,0x90,0x3d,0x38,0x00,0x90,0x42,0x42,0x81,0x77,0x80,0x3a,0x00,0x00,0x80,0x3d,
0x00,0x00,0x80,0x42,0x00,0x01,0x90,0x3a,0x38,0x00,0x90,0x3d,0x38,0x00,0x90,0x42,
0x42,0x83,0x5c,0x80,0x3a,0x00,0x00,0x80,0x3d,0x00,0x1e,0x80,0x49,0x00,0x00,0x80,
0x42,0x00,0x05,0x90,0x3c,0x45,0x82,0x15,0x80,0x3c,0x00,0x10,0x90,0x3f,0x40,0x81,
0x69,0x80,0x3f,0x00,0x10,0x90,0x44,0x40,0x81,0x69,0x80,0x44,0x00,0x10,0x90,0x3c,
0x40,0x81,0x73,0x80,0x3c,0x00,0x82,0x12,0x90,0x3c,0x38,0x00,0x90,0x3f,0x38,0x00,
0x90,0x44,0x42,0x81,0x76,0x80,0x3c,0x00,0x00,0x80,0x3f,0x00,0x00,0x80,0x44,0x00,
0x01,0x90,0x3c,0x38,0x00,0x90,0x3f,0x38,0x00,0x90,0x44,0x42,0x83,0x5f,0x80,0x3c,
0x00,0x00,0x80,0x3f,0x00,0x1e,0x80,0x44,0x00,0x01,0x90,0x3a,0x43,0x81,0x77,0x80,
0x3a,0x00,0x10,0x90,0x3d,0x40,0x81,0x67,0x80,0x3d,0x00,0x10,0x90,0x42,0x40,0x81,
0x68,0x80,0x42,0x00,0x10,0x90,0x3a,0x40,0x81,0x71,0x80,0x3a,0x00,0x82,0x11,0x90,
0x3a,0x38,0x00,0x90,0x3d,0x38,0x00,0x90,0x42,0x42,0x81,0x77,0x80,0x3a,0x00,0x00,
0x80,0x3d,0x00,0x00,0x80,0x42,0x00,0x01,0x90,0x3a,0x38,0x00,0x90,0x3d,0x38,0x00,
0x90,0x42,0x42,0x83,0x5c,0x80,0x3a,0x00,0x00,0x80,0x3d,0x00,0x00,0x80,0x42,0x00,
0x01,0xff,0x2f,0x00,0x0a,
};
