#include <stdint.h>
const uint8_t game_over_music[] = {
0x4d,0x54,0x68,0x64,0x00,0x00,0x00,0x06,0x00,0x01,0x00,0x02,0x04,0x00,0x4d,0x54,
0x72,0x6b,0x00,0x00,0x00,0x31,0x00,0xff,0x54,0x05,0x00,0x00,0x00,0x00,0x00,0x00,
0xff,0x58,0x04,0x03,0x02,0x18,0x08,0x00,0xff,0x59,0x02,0x00,0x00,0x00,0xff,0x51,
0x03,0x07,0xa1,0x1f,0x00,0xff,0x51,0x03,0x0f,0x42,0x3e,0x00,0xff,0x51,0x03,0x0f,
0x42,0x4d,0xaf,0x7f,0xff,0x2f,0x00,0x4d,0x54,0x72,0x6b,0x00,0x00,0x01,0x46,0x00,
0xff,0x09,0x16,0x53,0x6d,0x61,0x72,0x74,0x4d,0x75,0x73,0x69,0x63,0x20,0x53,0x6f,
0x66,0x74,0x53,0x79,0x6e,0x74,0x68,0x20,0x31,0x00,0xff,0x03,0x05,0x50,0x69,0x61,
0x6e,0x6f,0x00,0xc0,0x01,0x00,0xb0,0x07,0x65,0x00,0xb0,0x0a,0x40,0x00,0xb0,0x07,
0x66,0x00,0xb0,0x07,0x6e,0x0a,0xb0,0x07,0x66,0x00,0xb0,0x07,0x6e,0x00,0x90,0x39,
0x3b,0x00,0x90,0x3b,0x3b,0x00,0x90,0x40,0x49,0x00,0x90,0x30,0x43,0x82,0x0f,0x80,
0x39,0x00,0x00,0x80,0x3b,0x00,0x00,0x80,0x30,0x00,0x0f,0x80,0x40,0x00,0x01,0x90,
0x38,0x37,0x00,0x90,0x3a,0x37,0x00,0x90,0x3f,0x45,0x00,0x90,0x2f,0x3f,0x81,0x67,
0x80,0x38,0x00,0x00,0x80,0x3a,0x00,0x00,0x80,0x2f,0x00,0x0f,0x80,0x3f,0x00,0x01,
0x90,0x37,0x3b,0x00,0x90,0x39,0x3b,0x00,0x90,0x3e,0x49,0x00,0x90,0x2e,0x43,0x81,
0x67,0x80,0x37,0x00,0x00,0x80,0x39,0x00,0x00,0x80,0x2e,0x00,0x0f,0x80,0x3e,0x00,
0x01,0x90,0x36,0x40,0x00,0x90,0x38,0x40,0x00,0x90,0x3d,0x4e,0x00,0x90,0x2d,0x47,
0x81,0x73,0x80,0x36,0x00,0x00,0x80,0x38,0x00,0x00,0x80,0x2d,0x00,0x0f,0x80,0x3d,
0x00,0x01,0x90,0x35,0x44,0x00,0x90,0x37,0x44,0x00,0x90,0x3c,0x52,0x00,0x90,0x2c,
0x4b,0x8f,0x5b,0xb0,0x40,0x7f,0x0a,0x80,0x35,0x00,0x00,0x80,0x37,0x00,0x00,0x80,
0x3c,0x00,0x00,0x80,0x2c,0x00,0x05,0x90,0x34,0x36,0x00,0x90,0x36,0x36,0x00,0x90,
0x3b,0x44,0x00,0x90,0x2b,0x3e,0x88,0x16,0x90,0x40,0x3e,0x82,0x56,0x90,0x42,0x3c,
0x27,0x80,0x40,0x00,0x82,0x27,0x90,0x47,0x37,0x28,0x80,0x42,0x00,0x82,0x2c,0x90,
0x4c,0x31,0x27,0x80,0x47,0x00,0x82,0x2a,0x90,0x4e,0x2b,0x27,0x80,0x4c,0x00,0x82,
0x21,0x90,0x53,0x21,0x26,0xb0,0x40,0x00,0x02,0x80,0x4e,0x00,0x81,0x4e,0x80,0x53,
0x00,0x5e,0x80,0x34,0x00,0x00,0x80,0x36,0x00,0x00,0x80,0x3b,0x00,0x00,0x80,0x2b,
0x00,0x00,0xff,0x2f,0x00,
};
